<svg xmlns="http://www.w3.org/2000/svg" xmlns:xlink="http://www.w3.org/1999/xlink" version="1.1" width="3170" height="1857" style="width: 3170px; height: 1857px; background: #111111" viewBox="0 0 3170 1857"><style id="v-3" type="text/css">        .joint-element .scalable * {            vector-effect: non-scaling-stroke;        }    </style><defs joint-selector="defs"><marker id="v-2-527367903" orient="auto" overflow="visible" markerUnits="userSpaceOnUse"><path id="v-102" stroke="#cccccc" fill="#cccccc" transform="rotate(180)" d="M 20 -10 0 0 20 10 Z"></path></marker></defs><g joint-selector="layers"  transform="matrix(1,0,0,1,0,0)"><g  style="pointer-events: none;"></g><g ></g><g  style="user-select: none;"><!--z-index:0--><!--z-index:1--><!--z-index:2--><!--z-index:3--><!--z-index:4--><!--z-index:5--><!--z-index:6--><!--z-index:7--><!--z-index:8--><!--z-index:9--><!--z-index:10--><!--z-index:11--><!--z-index:12--><!--z-index:13--><!--z-index:14--><!--z-index:15--><!--z-index:16--><!--z-index:17--><!--z-index:18--><!--z-index:19--><!--z-index:20--><g   id="j_3"  transform="translate(20,1813)"><g id="v-8"><text  id="v-9" font-size="24px" xml:space="preserve" y="0.8em" font-weight="normal" text-anchor="start" fill="#cccccc" pointer-events="none" display="block" font-family="Tahoma, Verdana, Helvetica, Arial"><tspan dy="0" >Monday, April 20, 2026 at 1:04 PM Peru Standard Time</tspan></text></g></g><!--z-index:21--><g   id="j_2"  transform="translate(20,1779)"><g id="v-6"><text  id="v-7" font-size="24px" xml:space="preserve" y="0.8em" font-weight="normal" text-anchor="start" fill="#cccccc" pointer-events="none" display="block" font-family="Tahoma, Verdana, Helvetica, Arial"><tspan dy="0" >System Landscape diagram for the Vanana ecosystem - all systems shown as peers</tspan></text></g></g><!--z-index:22--><g   id="j_1"  transform="translate(20,1733)"><g id="v-4"><text  id="v-5" font-size="36px" xml:space="preserve" y="0.8em" font-weight="normal" text-anchor="start" fill="#cccccc" pointer-events="none" display="block" font-family="Tahoma, Verdana, Helvetica, Arial"><tspan dy="0" >System Landscape View</tspan></text></g></g><!--z-index:23--><g   id="j_4"  transform="translate(199,1119)" style=""><g  id="v-16" style="opacity: 1;"><rect  x="0" y="160" width="400" height="240" rx="70" id="v-18" stroke-width="2" pointer-events="visiblePainted" fill="#374151" stroke="#323b49" stroke-dasharray="" style="fill: rgb(55, 65, 81); stroke: rgb(50, 59, 73);"></rect><circle  cx="200" cy="88.88888888888889" r="88.88888888888889" id="v-17" stroke-width="2" pointer-events="visiblePainted" fill="#374151" stroke="#323b49" stroke-dasharray="" style="fill: rgb(55, 65, 81); stroke: rgb(50, 59, 73);"></circle><line  x1="80" y1="266.6666666666667" x2="80" y2="400" id="v-24" stroke="#323b49" stroke-width="1" stroke-dasharray="" style="stroke: rgb(50, 59, 73);"></line><line  x1="320" y1="266.6666666666667" x2="320" y2="400" id="v-25" stroke="#323b49" stroke-width="1" stroke-dasharray="" style="stroke: rgb(50, 59, 73);"></line><text  id="v-19" font-size="33.599999999999994px" xml:space="preserve" y="216.9" font-weight="bold" text-anchor="middle" pointer-events="visible" font-family="Tahoma, Verdana, Helvetica, Arial" fill="#cccccc" dominant-baseline="hanging" transform="matrix(1,0,0,1,200,0)" style="fill: rgb(204, 204, 204);"><tspan dy="0" >Facility Admin</tspan></text><text  id="v-20" font-size="16.799999999999997px" xml:space="preserve" y="258.5" text-anchor="middle" font-family="Tahoma, Verdana, Helvetica, Arial" fill="#cccccc" dominant-baseline="hanging" transform="matrix(1,0,0,1,200,0)" style="display: block; fill: rgb(204, 204, 204);"><tspan dy="0" >[Person]</tspan></text><text  id="v-21" font-size="24px" xml:space="preserve" y="290.3" text-anchor="middle" font-family="Tahoma, Verdana, Helvetica, Arial" fill="#cccccc" dominant-baseline="hanging" transform="matrix(1,0,0,1,200,0)" style="display: block; fill: rgb(204, 204, 204);"><tspan dy="0" >Owner or operator of multiple</tspan><tspan dy="1.2em" x="0" >air sensors across facilities.</tspan></text><g  id="v-22" font-weight="normal" text-anchor="middle" color="#cccccc" transform="matrix(1,0,0,1,197.5,368)" style="fill: rgb(204, 204, 204);" display="none"><g ></g><g ></g><g ></g><g ></g></g><image  id="v-23"></image></g></g><!--z-index:24--><g   id="j_5"  transform="translate(199,540)" style=""><g  id="v-29" style="opacity: 1;"><rect  x="0" y="160" width="400" height="240" rx="70" id="v-31" stroke-width="2" pointer-events="visiblePainted" fill="#374151" stroke="#323b49" stroke-dasharray="" style="fill: rgb(55, 65, 81); stroke: rgb(50, 59, 73);"></rect><circle  cx="200" cy="88.88888888888889" r="88.88888888888889" id="v-30" stroke-width="2" pointer-events="visiblePainted" fill="#374151" stroke="#323b49" stroke-dasharray="" style="fill: rgb(55, 65, 81); stroke: rgb(50, 59, 73);"></circle><line  x1="80" y1="266.6666666666667" x2="80" y2="400" id="v-37" stroke="#323b49" stroke-width="1" stroke-dasharray="" style="stroke: rgb(50, 59, 73);"></line><line  x1="320" y1="266.6666666666667" x2="320" y2="400" id="v-38" stroke="#323b49" stroke-width="1" stroke-dasharray="" style="stroke: rgb(50, 59, 73);"></line><text  id="v-32" font-size="33.599999999999994px" xml:space="preserve" y="216.9" font-weight="bold" text-anchor="middle" pointer-events="visible" font-family="Tahoma, Verdana, Helvetica, Arial" fill="#cccccc" dominant-baseline="hanging" transform="matrix(1,0,0,1,200,0)" style="fill: rgb(204, 204, 204);"><tspan dy="0" >Home User</tspan></text><text  id="v-33" font-size="16.799999999999997px" xml:space="preserve" y="258.5" text-anchor="middle" font-family="Tahoma, Verdana, Helvetica, Arial" fill="#cccccc" dominant-baseline="hanging" transform="matrix(1,0,0,1,200,0)" style="display: block; fill: rgb(204, 204, 204);"><tspan dy="0" >[Person]</tspan></text><text  id="v-34" font-size="24px" xml:space="preserve" y="290.3" text-anchor="middle" font-family="Tahoma, Verdana, Helvetica, Arial" fill="#cccccc" dominant-baseline="hanging" transform="matrix(1,0,0,1,200,0)" style="display: block; fill: rgb(204, 204, 204);"><tspan dy="0" >Customer who uses a personal</tspan><tspan dy="1.2em" x="0" >air sensor at home.</tspan></text><g  id="v-35" font-weight="normal" text-anchor="middle" color="#cccccc" transform="matrix(1,0,0,1,197.5,368)" style="fill: rgb(204, 204, 204);" display="none"><g ></g><g ></g><g ></g><g ></g></g><image  id="v-36"></image></g></g><!--z-index:25--><g   id="j_6"  transform="translate(939,617)" style=""><g  id="v-42" style="opacity: 1;"><rect  id="v-43" rx="1" ry="1" stroke-width="2" pointer-events="visiblePainted" fill="#111111" stroke="#cccccc" stroke-dasharray="" width="450" height="300" style="fill: rgb(17, 17, 17); stroke: rgb(204, 204, 204);"></rect><text  id="v-44" font-size="33.599999999999994px" xml:space="preserve" y="86.9" font-weight="bold" text-anchor="middle" pointer-events="visible" font-family="Tahoma, Verdana, Helvetica, Arial" fill="#cccccc" dominant-baseline="hanging" transform="matrix(1,0,0,1,225,0)" style="fill: rgb(204, 204, 204);"><tspan dy="0" >Vanana Platform</tspan></text><text  id="v-45" font-size="16.799999999999997px" xml:space="preserve" y="128.5" text-anchor="middle" font-family="Tahoma, Verdana, Helvetica, Arial" fill="#cccccc" dominant-baseline="hanging" transform="matrix(1,0,0,1,225,0)" style="display: block; fill: rgb(204, 204, 204);"><tspan dy="0" >[Software System]</tspan></text><text  id="v-46" font-size="24px" xml:space="preserve" y="160.3" text-anchor="middle" font-family="Tahoma, Verdana, Helvetica, Arial" fill="#cccccc" dominant-baseline="hanging" transform="matrix(1,0,0,1,225,0)" style="display: block; fill: rgb(204, 204, 204);"><tspan dy="0" >Central platform for monitoring and</tspan><tspan dy="1.2em" x="0" >automating IoT air quality devices.</tspan></text><g  id="v-47" color="#cccccc" transform="matrix(1,0,0,1,222.5,268)" style="fill: rgb(204, 204, 204);" display="none"><g ></g><g ></g><g ></g><g ></g></g><image  id="v-48"></image></g></g><!--z-index:26--><g   id="j_7"  transform="translate(2519,1090)" style=""><g  id="v-52" style="opacity: 1;"><rect  id="v-53" rx="1" ry="1" stroke-width="2" pointer-events="visiblePainted" fill="#111111" stroke="#cccccc" stroke-dasharray="" width="450" height="300" style="fill: rgb(17, 17, 17); stroke: rgb(204, 204, 204);"></rect><text  id="v-54" font-size="33.599999999999994px" xml:space="preserve" y="101.30000000000001" font-weight="bold" text-anchor="middle" pointer-events="visible" font-family="Tahoma, Verdana, Helvetica, Arial" fill="#cccccc" dominant-baseline="hanging" transform="matrix(1,0,0,1,225,0)" style="fill: rgb(204, 204, 204);"><tspan dy="0" >Google OAuth2</tspan></text><text  id="v-55" font-size="16.799999999999997px" xml:space="preserve" y="142.9" text-anchor="middle" font-family="Tahoma, Verdana, Helvetica, Arial" fill="#cccccc" dominant-baseline="hanging" transform="matrix(1,0,0,1,225,0)" style="display: block; fill: rgb(204, 204, 204);"><tspan dy="0" >[Software System]</tspan></text><text  id="v-56" font-size="24px" xml:space="preserve" y="174.7" text-anchor="middle" font-family="Tahoma, Verdana, Helvetica, Arial" fill="#cccccc" dominant-baseline="hanging" transform="matrix(1,0,0,1,225,0)" style="display: block; fill: rgb(204, 204, 204);"><tspan dy="0" >External authentication service.</tspan></text><g  id="v-57" color="#cccccc" transform="matrix(1,0,0,1,222.5,268)" style="fill: rgb(204, 204, 204);" display="none"><g ></g><g ></g><g ></g><g ></g></g><image  id="v-58"></image></g></g><!--z-index:27--><g   id="j_8"  transform="translate(1729,1159)" style=""><g  id="v-62" style="opacity: 1;"><rect  id="v-63" rx="1" ry="1" stroke-width="2" pointer-events="visiblePainted" fill="#111111" stroke="#cccccc" stroke-dasharray="" width="450" height="300" style="fill: rgb(17, 17, 17); stroke: rgb(204, 204, 204);"></rect><text  id="v-64" font-size="33.599999999999994px" xml:space="preserve" y="86.9" font-weight="bold" text-anchor="middle" pointer-events="visible" font-family="Tahoma, Verdana, Helvetica, Arial" fill="#cccccc" dominant-baseline="hanging" transform="matrix(1,0,0,1,225,0)" style="fill: rgb(204, 204, 204);"><tspan dy="0" >Stripe</tspan></text><text  id="v-65" font-size="16.799999999999997px" xml:space="preserve" y="128.5" text-anchor="middle" font-family="Tahoma, Verdana, Helvetica, Arial" fill="#cccccc" dominant-baseline="hanging" transform="matrix(1,0,0,1,225,0)" style="display: block; fill: rgb(204, 204, 204);"><tspan dy="0" >[Software System]</tspan></text><text  id="v-66" font-size="24px" xml:space="preserve" y="160.3" text-anchor="middle" font-family="Tahoma, Verdana, Helvetica, Arial" fill="#cccccc" dominant-baseline="hanging" transform="matrix(1,0,0,1,225,0)" style="display: block; fill: rgb(204, 204, 204);"><tspan dy="0" >External payment processing</tspan><tspan dy="1.2em" x="0" >platform.</tspan></text><g  id="v-67" color="#cccccc" transform="matrix(1,0,0,1,222.5,268)" style="fill: rgb(204, 204, 204);" display="none"><g ></g><g ></g><g ></g><g ></g></g><image  id="v-68"></image></g></g><!--z-index:28--><g   id="j_9"  transform="translate(1729,224)" style=""><g  id="v-72" style="opacity: 1;"><rect  id="v-73" rx="1" ry="1" stroke-width="2" pointer-events="visiblePainted" fill="#111111" stroke="#cccccc" stroke-dasharray="" width="450" height="300" style="fill: rgb(17, 17, 17); stroke: rgb(204, 204, 204);"></rect><text  id="v-74" font-size="33.599999999999994px" xml:space="preserve" y="86.9" font-weight="bold" text-anchor="middle" pointer-events="visible" font-family="Tahoma, Verdana, Helvetica, Arial" fill="#cccccc" dominant-baseline="hanging" transform="matrix(1,0,0,1,225,0)" style="fill: rgb(204, 204, 204);"><tspan dy="0" >Resend</tspan></text><text  id="v-75" font-size="16.799999999999997px" xml:space="preserve" y="128.5" text-anchor="middle" font-family="Tahoma, Verdana, Helvetica, Arial" fill="#cccccc" dominant-baseline="hanging" transform="matrix(1,0,0,1,225,0)" style="display: block; fill: rgb(204, 204, 204);"><tspan dy="0" >[Software System]</tspan></text><text  id="v-76" font-size="24px" xml:space="preserve" y="160.3" text-anchor="middle" font-family="Tahoma, Verdana, Helvetica, Arial" fill="#cccccc" dominant-baseline="hanging" transform="matrix(1,0,0,1,225,0)" style="display: block; fill: rgb(204, 204, 204);"><tspan dy="0" >External transactional email delivery</tspan><tspan dy="1.2em" x="0" >platform.</tspan></text><g  id="v-77" color="#cccccc" transform="matrix(1,0,0,1,222.5,268)" style="fill: rgb(204, 204, 204);" display="none"><g ></g><g ></g><g ></g><g ></g></g><image  id="v-78"></image></g></g><!--z-index:29--><g   id="j_10"  transform="translate(1729,574)" style=""><g  id="v-82" style="opacity: 1;"><rect  id="v-83" rx="1" ry="1" stroke-width="2" pointer-events="visiblePainted" fill="#111111" stroke="#cccccc" stroke-dasharray="" width="450" height="300" style="fill: rgb(17, 17, 17); stroke: rgb(204, 204, 204);"></rect><text  id="v-84" font-size="33.599999999999994px" xml:space="preserve" y="86.9" font-weight="bold" text-anchor="middle" pointer-events="visible" font-family="Tahoma, Verdana, Helvetica, Arial" fill="#cccccc" dominant-baseline="hanging" transform="matrix(1,0,0,1,225,0)" style="fill: rgb(204, 204, 204);"><tspan dy="0" >Clair Hardware</tspan></text><text  id="v-85" font-size="16.799999999999997px" xml:space="preserve" y="128.5" text-anchor="middle" font-family="Tahoma, Verdana, Helvetica, Arial" fill="#cccccc" dominant-baseline="hanging" transform="matrix(1,0,0,1,225,0)" style="display: block; fill: rgb(204, 204, 204);"><tspan dy="0" >[Software System]</tspan></text><text  id="v-86" font-size="24px" xml:space="preserve" y="160.3" text-anchor="middle" font-family="Tahoma, Verdana, Helvetica, Arial" fill="#cccccc" dominant-baseline="hanging" transform="matrix(1,0,0,1,225,0)" style="display: block; fill: rgb(204, 204, 204);"><tspan dy="0" >Physical air quality sensors and</tspan><tspan dy="1.2em" x="0" >actuators.</tspan></text><g  id="v-87" color="#cccccc" transform="matrix(1,0,0,1,222.5,268)" style="fill: rgb(204, 204, 204);" display="none"><g ></g><g ></g><g ></g><g ></g></g><image  id="v-88"></image></g></g><!--z-index:30--><g   id="j_11"  style="opacity: 1;"><path fill="none" cursor="pointer" stroke="transparent" stroke-linecap="round" joint-selector="wrapper" id="v-100" stroke-width="10" stroke-linejoin="round" d="M 599 1257.92 L 759 1209 C 765.6666666666666 1207 772.3333333333333 1206 779 1206 L 1549 1206 C 1555.6666666666665 1206 1562.3333333333333 1207 1569 1209 L 1729 1250.33"></path><path fill="none" pointer-events="none" joint-selector="line" id="v-99" stroke="#cccccc" stroke-width="2" stroke-linejoin="round" stroke-dasharray="8 8" d="M 599 1257.92 L 759 1209 C 765.6666666666666 1207 772.3333333333333 1206 779 1206 L 1549 1206 C 1555.6666666666665 1206 1562.3333333333333 1207 1569 1209 L 1729 1250.33" marker-end="url(#v-2-527367903)"></path><g id="v-92" ><g id="v-93"  label-idx="0" cursor="move" transform="matrix(1,0,0,1,1163.9923095703125,1206)" style="cursor: default;"><rect joint-selector="rect" id="v-96" fill="#111111" rx="3" ry="3" x="-86.49227905273438" y="-45.523624420166016" width="172.98455810546875" height="87.15271759033203" pointer-events="none"  style="display: block;"></rect><text joint-selector="text" id="v-95" font-size="24px" xml:space="preserve" fill="#cccccc" text-anchor="middle" pointer-events="none" font-family="Tahoma, Verdana, Helvetica, Arial" font-weight="normal"  style="display: block;"><tspan dy="-0.8999999999999999em" >Manages</tspan><tspan dy="1.2em" x="0" >subscription and</tspan><tspan dy="1.2em" x="0" >payments</tspan></text></g><g id="v-94"  label-idx="1" cursor="move" transform="matrix(1,0,0,1,1153.9923095703125,1246.800048828125)" style="cursor: default;"><rect joint-selector="rect" id="v-98" fill="#ffffff" rx="3" ry="3" x="0" y="0" width="0" height="0"  display="none"></rect><text joint-selector="text" id="v-97" fill="#000000" font-size="14" text-anchor="middle" text-vertical-anchor="middle" pointer-events="none"></text></g></g></g><!--z-index:31--><g   id="j_12"  style="opacity: 1;"><path fill="none" cursor="pointer" stroke="transparent" stroke-linecap="round" joint-selector="wrapper" id="v-114" stroke-width="10" stroke-linejoin="round" d="M 599 740.11 L 759 740 C 765.6666666666666 740.1333333333332 772.3333333333333 740.4666666666666 779 741 L 939 751.73" style="stroke-width: 10px;"></path><path fill="none" pointer-events="none" joint-selector="line" id="v-113" stroke="#cccccc" stroke-width="2" stroke-linejoin="round" stroke-dasharray="8 8" d="M 599 740.11 L 759 740 C 765.6666666666666 740.1333333333332 772.3333333333333 740.4666666666666 779 741 L 939 751.73" marker-end="url(#v-2-527367903)"></path><g id="v-106" ><g id="v-107"  label-idx="0" cursor="move" transform="matrix(1,0,0,1,769,740.3499755859375)" style="cursor: default;"><rect joint-selector="rect" id="v-110" fill="#111111" rx="3" ry="3" x="-95.77147674560547" y="-31.12363052368164" width="192.74436950683594" height="58.35272216796875" pointer-events="none"  style="display: block;"></rect><text joint-selector="text" id="v-109" font-size="24px" xml:space="preserve" fill="#cccccc" text-anchor="middle" pointer-events="none" font-family="Tahoma, Verdana, Helvetica, Arial" font-weight="normal"  style="display: block;"><tspan dy="-0.3em" >Monitors home air</tspan><tspan dy="1.2em" x="0" >quality</tspan></text></g><g id="v-108"  label-idx="1" cursor="move" transform="matrix(1,0,0,1,759,766.75)" style="cursor: default;"><rect joint-selector="rect" id="v-112" fill="#ffffff" rx="3" ry="3" x="-1.1368683772161603e-13" y="0" width="0" height="0"  display="none"></rect><text joint-selector="text" id="v-111" fill="#000000" font-size="14" text-anchor="middle" text-vertical-anchor="middle" pointer-events="none"></text></g></g></g><!--z-index:32--><g   id="j_13"  style="opacity: 1;"><path fill="none" cursor="pointer" stroke="transparent" stroke-linecap="round" joint-selector="wrapper" id="v-126" stroke-width="10" stroke-linejoin="round" d="M 529.83 540 L 764 183 C 767.3333333333333 177.26666666666665 772.3333333333333 174.26666666666665 779 174 L 2339 174 C 2345.6666666666665 174.26666666666665 2350 177.6 2352 184 L 2688.4 1090" style="stroke-width: 10px;"></path><path fill="none" pointer-events="none" joint-selector="line" id="v-125" stroke="#cccccc" stroke-width="2" stroke-linejoin="round" stroke-dasharray="8 8" d="M 529.83 540 L 764 183 C 767.3333333333333 177.26666666666665 772.3333333333333 174.26666666666665 779 174 L 2339 174 C 2345.6666666666665 174.26666666666665 2350 177.6 2352 184 L 2688.4 1090" marker-end="url(#v-2-527367903)"></path><g id="v-118" ><g id="v-119"  label-idx="0" cursor="move" transform="matrix(1,0,0,1,1558.7510986328125,174)" style="cursor: default;"><rect joint-selector="rect" id="v-122" fill="#111111" rx="3" ry="3" x="-90.01045989990234" y="-31.12363052368164" width="180.0209197998047" height="58.35272216796875" pointer-events="none"  style="display: block;"></rect><text joint-selector="text" id="v-121" font-size="24px" xml:space="preserve" fill="#cccccc" text-anchor="middle" pointer-events="none" font-family="Tahoma, Verdana, Helvetica, Arial" font-weight="normal"  style="display: block;"><tspan dy="-0.3em" >Authenticates</tspan><tspan dy="1.2em" x="0" >using social login</tspan></text></g><g id="v-120"  label-idx="1" cursor="move" transform="matrix(1,0,0,1,1548.7510986328125,200.39999389648438)" style="cursor: default;"><rect joint-selector="rect" id="v-124" fill="#ffffff" rx="3" ry="3" x="0" y="0" width="0" height="0"  display="none"></rect><text joint-selector="text" id="v-123" fill="#000000" font-size="14" text-anchor="middle" text-vertical-anchor="middle" pointer-events="none"></text></g></g></g><!--z-index:33--><g   id="j_14"  style="opacity: 1;"><path fill="none" cursor="pointer" stroke="transparent" stroke-linecap="round" joint-selector="wrapper" id="v-138" stroke-width="10" stroke-linejoin="round" d="M 525.89 940 L 764 1315 C 767.3333333333333 1320.4666666666667 772.3333333333333 1323.1333333333332 779 1323 L 1549 1323 C 1555.6666666666665 1323.1333333333332 1562.3333333333333 1323.1333333333332 1569 1323 L 1729 1317.09"></path><path fill="none" pointer-events="none" joint-selector="line" id="v-137" stroke="#cccccc" stroke-width="2" stroke-linejoin="round" stroke-dasharray="8 8" d="M 525.89 940 L 764 1315 C 767.3333333333333 1320.4666666666667 772.3333333333333 1323.1333333333332 779 1323 L 1549 1323 C 1555.6666666666665 1323.1333333333332 1562.3333333333333 1323.1333333333332 1569 1323 L 1729 1317.09" marker-end="url(#v-2-527367903)"></path><g id="v-130" ><g id="v-131"  label-idx="0" cursor="move" transform="matrix(1,0,0,1,1164.61767578125,1323)" style="cursor: default;"><rect joint-selector="rect" id="v-134" fill="#111111" rx="3" ry="3" x="-72.82633972167969" y="-31.12363052368164" width="145.65267944335938" height="58.35272216796875" pointer-events="none"  style="display: block;"></rect><text joint-selector="text" id="v-133" font-size="24px" xml:space="preserve" fill="#cccccc" text-anchor="middle" pointer-events="none" font-family="Tahoma, Verdana, Helvetica, Arial" font-weight="normal"  style="display: block;"><tspan dy="-0.3em" >Subscribes to</tspan><tspan dy="1.2em" x="0" >premium plan</tspan></text></g><g id="v-132"  label-idx="1" cursor="move" transform="matrix(1,0,0,1,1154.61767578125,1349.4000244140625)" style="cursor: default;"><rect joint-selector="rect" id="v-136" fill="#ffffff" rx="3" ry="3" x="0" y="0" width="0" height="0"  display="none"></rect><text joint-selector="text" id="v-135" fill="#000000" font-size="14" text-anchor="middle" text-vertical-anchor="middle" pointer-events="none"></text></g></g></g><!--z-index:34--><g   id="j_15"  style="opacity: 1;"><path fill="none" cursor="pointer" stroke="transparent" stroke-linecap="round" joint-selector="wrapper" id="v-150" stroke-width="10" stroke-linejoin="round" d="M 1389 879.9 L 1550 961 C 1556 963.8 1562.3333333333333 965.1333333333332 1569 965 L 2339 965 C 2345.6666666666665 965.1333333333332 2351.6666666666665 967.1333333333332 2357 971 L 2528.39 1090" style="stroke-width: 10px;"></path><path fill="none" pointer-events="none" joint-selector="line" id="v-149" stroke="#cccccc" stroke-width="2" stroke-linejoin="round" stroke-dasharray="8 8" d="M 1389 879.9 L 1550 961 C 1556 963.8 1562.3333333333333 965.1333333333332 1569 965 L 2339 965 C 2345.6666666666665 965.1333333333332 2351.6666666666665 967.1333333333332 2357 971 L 2528.39 1090" marker-end="url(#v-2-527367903)"></path><g id="v-142" ><g id="v-143"  label-idx="0" cursor="move" transform="matrix(1,0,0,1,1953.3724365234375,965)" style="cursor: default;"><rect joint-selector="rect" id="v-146" fill="#111111" rx="3" ry="3" x="-91.18685150146484" y="-45.523624420166016" width="182.9987030029297" height="87.15271759033203" pointer-events="none"  style="display: block;"></rect><text joint-selector="text" id="v-145" font-size="24px" xml:space="preserve" fill="#cccccc" text-anchor="middle" pointer-events="none" font-family="Tahoma, Verdana, Helvetica, Arial" font-weight="normal"  style="display: block;"><tspan dy="-0.8999999999999999em" >Authenticates</tspan><tspan dy="1.2em" x="0" >users via OpenID</tspan><tspan dy="1.2em" x="0" >Connect</tspan></text></g><g id="v-144"  label-idx="1" cursor="move" transform="matrix(1,0,0,1,1943.3724365234375,1005.7999877929688)" style="cursor: default;"><rect joint-selector="rect" id="v-148" fill="#ffffff" rx="3" ry="3" x="0" y="0" width="0" height="0"  display="none"></rect><text joint-selector="text" id="v-147" fill="#000000" font-size="14" text-anchor="middle" text-vertical-anchor="middle" pointer-events="none"></text></g></g></g><!--z-index:35--><g   id="j_16"  style="opacity: 1;"><path fill="none" cursor="pointer" stroke="transparent" stroke-linecap="round" joint-selector="wrapper" id="v-162" stroke-width="10" stroke-linejoin="round" d="M 1255.58 917 L 1554 1405 C 1557.3333333333333 1410.9999999999998 1562.3333333333333 1412.9999999999998 1569 1411 L 1729 1368.81" style="stroke-width: 10px;"></path><path fill="none" pointer-events="none" joint-selector="line" id="v-161" stroke="#cccccc" stroke-width="2" stroke-linejoin="round" stroke-dasharray="8 8" d="M 1255.58 917 L 1554 1405 C 1557.3333333333333 1410.9999999999998 1562.3333333333333 1412.9999999999998 1569 1411 L 1729 1368.81" marker-end="url(#v-2-527367903)"></path><g id="v-154" ><g id="v-155"  label-idx="0" cursor="move" transform="matrix(1,0,0,1,1559.557861328125,1410.6923828125)" style="cursor: default;"><rect joint-selector="rect" id="v-158" fill="#111111" rx="3" ry="3" x="-74.56344604492188" y="-45.523624420166016" width="149.12689208984375" height="87.15271759033203" pointer-events="none"  style="display: block;"></rect><text joint-selector="text" id="v-157" font-size="24px" xml:space="preserve" fill="#cccccc" text-anchor="middle" pointer-events="none" font-family="Tahoma, Verdana, Helvetica, Arial" font-weight="normal"  style="display: block;"><tspan dy="-0.8999999999999999em" >Processes</tspan><tspan dy="1.2em" x="0" >payments and</tspan><tspan dy="1.2em" x="0" >subscriptions</tspan></text></g><g id="v-156"  label-idx="1" cursor="move" transform="matrix(1,0,0,1,1549.557861328125,1451.492431640625)" style="cursor: default;"><rect joint-selector="rect" id="v-160" fill="#ffffff" rx="3" ry="3" x="0" y="-2.2737367544323206e-13" width="0" height="0"  display="none"></rect><text joint-selector="text" id="v-159" fill="#000000" font-size="14" text-anchor="middle" text-vertical-anchor="middle" pointer-events="none"></text></g></g></g><!--z-index:36--><g   id="j_17"  style="opacity: 1;"><path fill="none" cursor="pointer" stroke="transparent" stroke-linecap="round" joint-selector="wrapper" id="v-174" stroke-width="10" stroke-linejoin="round" d="M 1314.92 617 L 1552 381 C 1556.6666666666665 376.59999999999997 1562.3333333333333 374.26666666666665 1569 374 L 1729 374.23" style="stroke-width: 10px;"></path><path fill="none" pointer-events="none" joint-selector="line" id="v-173" stroke="#cccccc" stroke-width="2" stroke-linejoin="round" stroke-dasharray="8 8" d="M 1314.92 617 L 1552 381 C 1556.6666666666665 376.59999999999997 1562.3333333333333 374.26666666666665 1569 374 L 1729 374.23" marker-end="url(#v-2-527367903)"></path><g id="v-166" ><g id="v-167"  label-idx="0" cursor="move" transform="matrix(1,0,0,1,1559.5511474609375,376.0328674316406)" style="cursor: default;"><rect joint-selector="rect" id="v-170" fill="#111111" rx="3" ry="3" x="-67.23023986816406" y="-45.523624420166016" width="134.46047973632812" height="87.15271759033203" pointer-events="none"  style="display: block;"></rect><text joint-selector="text" id="v-169" font-size="24px" xml:space="preserve" fill="#cccccc" text-anchor="middle" pointer-events="none" font-family="Tahoma, Verdana, Helvetica, Arial" font-weight="normal"  style="display: block;"><tspan dy="-0.8999999999999999em" >Sends</tspan><tspan dy="1.2em" x="0" >transactional</tspan><tspan dy="1.2em" x="0" >emails</tspan></text></g><g id="v-168"  label-idx="1" cursor="move" transform="matrix(1,0,0,1,1549.5511474609375,416.8328857421875)" style="cursor: default;"><rect joint-selector="rect" id="v-172" fill="#ffffff" rx="3" ry="3" x="0" y="0" width="0" height="0"  display="none"></rect><text joint-selector="text" id="v-171" fill="#000000" font-size="14" text-anchor="middle" text-vertical-anchor="middle" pointer-events="none"></text></g></g></g><!--z-index:37--><g   id="j_18"  style="opacity: 1;"><path fill="none" cursor="pointer" stroke="transparent" stroke-linecap="round" joint-selector="wrapper" id="v-186" stroke-width="10" stroke-linejoin="round" d="M 1389 742.73 L 1549 725 C 1555.6666666666665 724.5999999999999 1562.3333333333333 724.2666666666667 1569 724 L 1729 724.23" style="stroke-width: 10px;"></path><path fill="none" pointer-events="none" joint-selector="line" id="v-185" stroke="#cccccc" stroke-width="2" stroke-linejoin="round" stroke-dasharray="8 8" d="M 1389 742.73 L 1549 725 C 1555.6666666666665 724.5999999999999 1562.3333333333333 724.2666666666667 1569 724 L 1729 724.23" marker-end="url(#v-2-527367903)"></path><g id="v-178" ><g id="v-179"  label-idx="0" cursor="move" transform="matrix(1,0,0,1,1559,724.4500122070312)" style="cursor: default;"><rect joint-selector="rect" id="v-182" fill="#111111" rx="3" ry="3" x="-96.453125" y="-31.12363052368164" width="193.6277618408203" height="58.35272216796875" pointer-events="none"  style="display: block;"></rect><text joint-selector="text" id="v-181" font-size="24px" xml:space="preserve" fill="#cccccc" text-anchor="middle" pointer-events="none" font-family="Tahoma, Verdana, Helvetica, Arial" font-weight="normal"  style="display: block;"><tspan dy="-0.3em" >Commands and</tspan><tspan dy="1.2em" x="0" >receives telemetry</tspan></text></g><g id="v-180"  label-idx="1" cursor="move" transform="matrix(1,0,0,1,1549,750.8499755859375)" style="cursor: default;"><rect joint-selector="rect" id="v-184" fill="#ffffff" rx="3" ry="3" x="0" y="0" width="0" height="0"  display="none"></rect><text joint-selector="text" id="v-183" fill="#000000" font-size="14" text-anchor="middle" text-vertical-anchor="middle" pointer-events="none"></text></g></g></g><!--z-index:38--><g   id="j_19"  style="opacity: 1;"><path fill="none" cursor="pointer" stroke="transparent" stroke-linecap="round" joint-selector="wrapper" id="v-201" stroke-width="10" stroke-linejoin="round" d="M 2179 1309.57 L 2339 1310 C 2345.6666666666665 1309.9999999999998 2352.333333333333 1309.333333333333 2359 1308 L 2519 1279.87"></path><path fill="none" pointer-events="none" joint-selector="line" id="v-200" stroke="#cccccc" stroke-width="2" stroke-linejoin="round" stroke-dasharray="8 8" d="M 2179 1309.57 L 2339 1310 C 2345.6666666666665 1309.9999999999998 2352.333333333333 1309.333333333333 2359 1308 L 2519 1279.87" marker-end="url(#v-2-527367903)"></path><g id="v-190" ><g id="v-191"  label-idx="0" cursor="move" transform="matrix(1,0,0,1,2349,1296.0999755859375)" style="cursor: default;"><rect joint-selector="rect" id="v-195" fill="#111111" rx="3" ry="3" x="-85.8656005859375" y="-45.523624420166016" width="172.4453582763672" height="87.15271759033203" pointer-events="none"  style="display: block;"></rect><text joint-selector="text" id="v-194" font-size="24px" xml:space="preserve" fill="#cccccc" text-anchor="middle" pointer-events="none" font-family="Tahoma, Verdana, Helvetica, Arial" font-weight="normal"  style="display: block;"><tspan dy="-0.8999999999999999em" >Uses for identity</tspan><tspan dy="1.2em" x="0" >verification on</tspan><tspan dy="1.2em" x="0" >checkout</tspan></text></g><g id="v-192"  label-idx="1" cursor="move" transform="matrix(1,0,0,1,2349,1355.300048828125)" style="cursor: default;"><rect joint-selector="rect" id="v-197" fill="#111111" rx="3" ry="3" x="-34.0933723449707" y="-11.847268104553223" width="68.1867446899414" height="21.109085083007812"  pointer-events="none" style="display: block;"></rect><text joint-selector="text" id="v-196" font-size="16.799999999999997px" xml:space="preserve" fill="#cccccc" text-anchor="middle" pointer-events="none" font-family="Tahoma, Verdana, Helvetica, Arial" font-weight="normal"  style="display: block;"><tspan dy="0.3em" >[OAuth2]</tspan></text></g><g id="v-193"  label-idx="2" cursor="move" transform="matrix(1,0,0,1,2340.25,1363.567138671875)" style="cursor: default;"><rect joint-selector="rect" id="v-199" fill="#ffffff" rx="3" ry="3" x="0" y="-2.2737367544323206e-13" width="0" height="0"  display="none"></rect><text joint-selector="text" id="v-198" fill="#000000" font-size="14" text-anchor="middle" text-vertical-anchor="middle" pointer-events="none"></text></g></g></g><!--z-index:39--><g   id="j_20"  style="opacity: 1;"><path fill="none" cursor="pointer" stroke="transparent" stroke-linecap="round" joint-selector="wrapper" id="v-213" stroke-width="10" stroke-linejoin="round" d="M 599 1168.3 L 761 1046 C 766.3333333333333 1042.1333333333332 771.6666666666666 1038.4666666666665 777 1035 L 947.13 917" style="stroke-width: 10px;"></path><path fill="none" pointer-events="none" joint-selector="line" id="v-212" stroke="#cccccc" stroke-width="2" stroke-linejoin="round" stroke-dasharray="8 8" d="M 599 1168.3 L 761 1046 C 766.3333333333333 1042.1333333333332 771.6666666666666 1038.4666666666665 777 1035 L 947.13 917" marker-end="url(#v-2-527367903)"></path><g id="v-205" ><g id="v-206"  label-idx="0" cursor="move" transform="matrix(1,0,0,1,769.15625,1040.24267578125)" style="cursor: default;"><rect joint-selector="rect" id="v-209" fill="#111111" rx="3" ry="3" x="-92.68207550048828" y="-45.523624420166016" width="185.9126739501953" height="87.15271759033203" pointer-events="none"  style="display: block;"></rect><text joint-selector="text" id="v-208" font-size="24px" xml:space="preserve" fill="#cccccc" text-anchor="middle" pointer-events="none" font-family="Tahoma, Verdana, Helvetica, Arial" font-weight="normal"  style="display: block;"><tspan dy="-0.8999999999999999em" >Manages facilities</tspan><tspan dy="1.2em" x="0" >and monitors air</tspan><tspan dy="1.2em" x="0" >quality</tspan></text></g><g id="v-207"  label-idx="1" cursor="move" transform="matrix(1,0,0,1,759.15625,1081.0426025390625)" style="cursor: default;"><rect joint-selector="rect" id="v-211" fill="#ffffff" rx="3" ry="3" x="0" y="0" width="0" height="0"  display="none"></rect><text joint-selector="text" id="v-210" fill="#000000" font-size="14" text-anchor="middle" text-vertical-anchor="middle" pointer-events="none"></text></g></g></g><!--z-index:40--><g   id="j_21"  style="opacity: 1;"><path fill="none" cursor="pointer" stroke="transparent" stroke-linecap="round" joint-selector="wrapper" id="v-225" stroke-width="10" stroke-linejoin="round" d="M 599 1456.08 L 761 1567 C 766.3333333333333 1570.7333333333331 772.3333333333333 1572.7333333333331 779 1573 L 2339 1573 C 2345.6666666666665 1572.7333333333331 2351.6666666666665 1570.3999999999999 2357 1566 L 2565.86 1390" style="stroke-width: 10px;"></path><path fill="none" pointer-events="none" joint-selector="line" id="v-224" stroke="#cccccc" stroke-width="2" stroke-linejoin="round" stroke-dasharray="8 8" d="M 599 1456.08 L 761 1567 C 766.3333333333333 1570.7333333333331 772.3333333333333 1572.7333333333331 779 1573 L 2339 1573 C 2345.6666666666665 1572.7333333333331 2351.6666666666665 1570.3999999999999 2357 1566 L 2565.86 1390" marker-end="url(#v-2-527367903)"></path><g id="v-217" ><g id="v-218"  label-idx="0" cursor="move" transform="matrix(1,0,0,1,1559.2786865234375,1573)" style="cursor: default;"><rect joint-selector="rect" id="v-221" fill="#111111" rx="3" ry="3" x="-90.01045989990234" y="-31.12363052368164" width="180.0209197998047" height="58.35272216796875" pointer-events="none"  style="display: block;"></rect><text joint-selector="text" id="v-220" font-size="24px" xml:space="preserve" fill="#cccccc" text-anchor="middle" pointer-events="none" font-family="Tahoma, Verdana, Helvetica, Arial" font-weight="normal"  style="display: block;"><tspan dy="-0.3em" >Authenticates</tspan><tspan dy="1.2em" x="0" >using social login</tspan></text></g><g id="v-219"  label-idx="1" cursor="move" transform="matrix(1,0,0,1,1549.2786865234375,1599.4000244140625)" style="cursor: default;"><rect joint-selector="rect" id="v-223" fill="#ffffff" rx="3" ry="3" x="0" y="0" width="0" height="0"  display="none"></rect><text joint-selector="text" id="v-222" fill="#000000" font-size="14" text-anchor="middle" text-vertical-anchor="middle" pointer-events="none"></text></g></g></g><!--z-index:41--></g><g  style="user-select: none;"></g><g ></g><g  display="none"></g></g></svg>