<svg xmlns="http://www.w3.org/2000/svg" xmlns:xlink="http://www.w3.org/1999/xlink" contentStyleType="text/css" data-diagram-type="DESCRIPTION" height="552px" preserveAspectRatio="none" style="width:1966px;height:552px;background:#FFFFFF;" version="1.1" viewBox="0 0 1966 552" width="1966px" zoomAndPan="magnify"><defs/><g><!--cluster Firebase--><g class="cluster" data-entity="Firebase" data-source-line="9" data-uid="ent0004" id="cluster_Firebase"><rect fill="none" height="105" rx="2.5" ry="2.5" style="stroke:#181818;stroke-width:1;" width="510.5" x="309" y="143"/><text fill="#000000" font-family="sans-serif" font-size="14" font-weight="bold" lengthAdjust="spacing" textLength="68.0586" x="530.2207" y="157.9951">Firebase</text></g><!--cluster v1--><g class="cluster" data-entity="v1" data-source-line="14" data-uid="ent0007" id="cluster_v1"><rect fill="none" height="105" rx="2.5" ry="2.5" style="stroke:#181818;stroke-width:1;" width="160" x="294" y="7"/><text fill="#000000" font-family="sans-serif" font-size="14" font-weight="bold" lengthAdjust="spacing" textLength="139.7266" x="304.1367" y="21.9951">Vercel (Frontend)</text></g><!--cluster v2--><g class="cluster" data-entity="v2" data-source-line="18" data-uid="ent0009" id="cluster_v2"><rect fill="none" height="103" rx="2.5" ry="2.5" style="stroke:#181818;stroke-width:1;" width="536.5" x="678" y="16"/><text fill="#000000" font-family="sans-serif" font-size="14" font-weight="bold" lengthAdjust="spacing" textLength="152.8789" x="869.8105" y="30.9951">Vercel (Dashboard)</text></g><!--cluster Azure Event Hub (Backend)--><g class="cluster" data-entity="Azure Event Hub .Backend." data-source-line="23" data-uid="ent0012" id="cluster_Azure Event Hub .Backend."><rect fill="none" height="210" rx="2.5" ry="2.5" style="stroke:#181818;stroke-width:1;" width="545" x="1415" y="102"/><text fill="#000000" font-family="sans-serif" font-size="14" font-weight="bold" lengthAdjust="spacing" textLength="216.5283" x="1579.2358" y="116.9951">Azure Event Hub (Backend)</text></g><!--cluster Azure IoT (Edge)--><g class="cluster" data-entity="Azure IoT .Edge." data-source-line="31" data-uid="ent0017" id="cluster_Azure IoT .Edge."><rect fill="none" height="210" rx="2.5" ry="2.5" style="stroke:#181818;stroke-width:1;" width="513.5" x="1035" y="336"/><text fill="#000000" font-family="sans-serif" font-size="14" font-weight="bold" lengthAdjust="spacing" textLength="131.373" x="1226.0635" y="350.9951">Azure IoT (Edge)</text></g><!--entity mobileapp--><g class="entity" data-entity="mobileapp" data-source-line="10" data-uid="ent0005" id="entity_mobileapp"><rect fill="#F1F1F1" height="52.5938" rx="2.5" ry="2.5" style="stroke:#181818;stroke-width:0.5;" width="97.7246" x="325" y="178.5"/><text fill="#000000" font-family="sans-serif" font-size="14" lengthAdjust="spacing" textLength="77.7246" x="335" y="201.4951">Mobile App</text><text fill="#000000" font-family="sans-serif" font-size="14" lengthAdjust="spacing" textLength="57.0869" x="335" y="217.792">(Flutter)</text></g><!--entity sqlite_mobile--><g class="entity" data-entity="sqlite_mobile" data-source-line="11" data-uid="ent0006" id="entity_sqlite_mobile"><path d="M737.5,188.5 C737.5,178.5 770.3491,178.5 770.3491,178.5 C770.3491,178.5 803.1982,178.5 803.1982,188.5 L803.1982,213.7969 C803.1982,223.7969 770.3491,223.7969 770.3491,223.7969 C770.3491,223.7969 737.5,223.7969 737.5,213.7969 L737.5,188.5" fill="#F1F1F1" style="stroke:#181818;stroke-width:0.5;"/><path d="M737.5,188.5 C737.5,198.5 770.3491,198.5 770.3491,198.5 C770.3491,198.5 803.1982,198.5 803.1982,188.5" fill="none" style="stroke:#181818;stroke-width:0.5;"/><text fill="#000000" font-family="sans-serif" font-size="14" lengthAdjust="spacing" textLength="45.6982" x="747.5" y="215.4951">SQLite</text></g><!--entity landing--><g class="entity" data-entity="landing" data-source-line="15" data-uid="ent0008" id="entity_landing"><rect fill="#F1F1F1" height="52.5938" rx="2.5" ry="2.5" style="stroke:#181818;stroke-width:0.5;" width="128.2471" x="310" y="42.5"/><text fill="#000000" font-family="sans-serif" font-size="14" lengthAdjust="spacing" textLength="94.7598" x="320" y="65.4951">Landing Page</text><text fill="#000000" font-family="sans-serif" font-size="14" lengthAdjust="spacing" textLength="108.2471" x="320" y="81.792">(HTML, CSS, JS)</text></g><!--entity webapp--><g class="entity" data-entity="webapp" data-source-line="19" data-uid="ent0010" id="entity_webapp"><rect fill="#F1F1F1" height="36.2969" rx="2.5" ry="2.5" style="stroke:#181818;stroke-width:0.5;" width="152.9521" x="694" y="51"/><text fill="#000000" font-family="sans-serif" font-size="14" lengthAdjust="spacing" textLength="132.9521" x="704" y="73.9951">Web App (Angular)</text></g><!--entity spa--><g class="entity" data-entity="spa" data-source-line="20" data-uid="ent0011" id="entity_spa"><rect fill="#F1F1F1" height="36.2969" rx="2.5" ry="2.5" style="stroke:#181818;stroke-width:0.5;" width="116.7148" x="1081.5" y="59"/><text fill="#000000" font-family="sans-serif" font-size="14" lengthAdjust="spacing" textLength="96.7148" x="1091.5" y="81.9951">SPA (Angular)</text></g><!--entity gateway--><g class="entity" data-entity="gateway" data-source-line="24" data-uid="ent0013" id="entity_gateway"><rect fill="#F1F1F1" height="52.5938" rx="2.5" ry="2.5" style="stroke:#181818;stroke-width:0.5;" width="120.543" x="1439" y="242.5"/><text fill="#000000" font-family="sans-serif" font-size="14" lengthAdjust="spacing" textLength="96.3936" x="1449" y="265.4951">API GATEWAY</text><text fill="#000000" font-family="sans-serif" font-size="14" lengthAdjust="spacing" textLength="100.543" x="1449" y="281.792">(Spring Cloud)</text></g><!--entity platform--><g class="entity" data-entity="platform" data-source-line="25" data-uid="ent0014" id="entity_platform"><rect fill="#F1F1F1" height="52.5938" rx="2.5" ry="2.5" style="stroke:#181818;stroke-width:0.5;" width="136.8398" x="1431" y="137.5"/><text fill="#000000" font-family="sans-serif" font-size="14" lengthAdjust="spacing" textLength="85.8867" x="1441" y="160.4951">API Platform</text><text fill="#000000" font-family="sans-serif" font-size="14" lengthAdjust="spacing" textLength="116.8398" x="1441" y="176.792">(Java 25, Spring)</text></g><!--entity postgres--><g class="entity" data-entity="postgres" data-source-line="27" data-uid="ent0015" id="entity_postgres"><path d="M1789,229 C1789,219 1866.5596,219 1866.5596,219 C1866.5596,219 1944.1191,219 1944.1191,229 L1944.1191,270.5938 C1944.1191,280.5938 1866.5596,280.5938 1866.5596,280.5938 C1866.5596,280.5938 1789,280.5938 1789,270.5938 L1789,229" fill="#F1F1F1" style="stroke:#181818;stroke-width:0.5;"/><path d="M1789,229 C1789,239 1866.5596,239 1866.5596,239 C1866.5596,239 1944.1191,239 1944.1191,229" fill="none" style="stroke:#181818;stroke-width:0.5;"/><text fill="#000000" font-family="sans-serif" font-size="14" lengthAdjust="spacing" textLength="135.1191" x="1799" y="255.9951">Azure Database for</text><text fill="#000000" font-family="sans-serif" font-size="14" lengthAdjust="spacing" textLength="80.7529" x="1799" y="272.292">PostgreSQL</text></g><!--entity redis--><g class="entity" data-entity="redis" data-source-line="28" data-uid="ent0016" id="entity_redis"><path d="M1815,148.5 C1815,138.5 1866.4258,138.5 1866.4258,138.5 C1866.4258,138.5 1917.8516,138.5 1917.8516,148.5 L1917.8516,173.7969 C1917.8516,183.7969 1866.4258,183.7969 1866.4258,183.7969 C1866.4258,183.7969 1815,183.7969 1815,173.7969 L1815,148.5" fill="#F1F1F1" style="stroke:#181818;stroke-width:0.5;"/><path d="M1815,148.5 C1815,158.5 1866.4258,158.5 1866.4258,158.5 C1866.4258,158.5 1917.8516,158.5 1917.8516,148.5" fill="none" style="stroke:#181818;stroke-width:0.5;"/><text fill="#000000" font-family="sans-serif" font-size="14" lengthAdjust="spacing" textLength="82.8516" x="1825" y="175.4951">Redis Cloud</text></g><!--entity embedded--><g class="entity" data-entity="embedded" data-source-line="32" data-uid="ent0018" id="entity_embedded"><rect fill="#F1F1F1" height="52.5938" rx="2.5" ry="2.5" style="stroke:#181818;stroke-width:0.5;" width="177.9307" x="1051" y="476.5"/><text fill="#000000" font-family="sans-serif" font-size="14" lengthAdjust="spacing" textLength="157.9307" x="1061" y="499.4951">Embedded Application</text><text fill="#000000" font-family="sans-serif" font-size="14" lengthAdjust="spacing" textLength="44.1602" x="1061" y="515.792">(C++)</text></g><!--entity edge--><g class="entity" data-entity="edge" data-source-line="33" data-uid="ent0019" id="entity_edge"><rect fill="#F1F1F1" height="52.5938" rx="2.5" ry="2.5" style="stroke:#181818;stroke-width:0.5;" width="137.9063" x="1071" y="371.5"/><text fill="#000000" font-family="sans-serif" font-size="14" lengthAdjust="spacing" textLength="117.9063" x="1081" y="394.4951">Edge Application</text><text fill="#000000" font-family="sans-serif" font-size="14" lengthAdjust="spacing" textLength="99.8252" x="1081" y="410.792">(Python Flask)</text></g><!--entity sqlite_edge--><g class="entity" data-entity="sqlite_edge" data-source-line="34" data-uid="ent0020" id="entity_sqlite_edge"><path d="M1466.5,385.5 C1466.5,375.5 1499.3491,375.5 1499.3491,375.5 C1499.3491,375.5 1532.1982,375.5 1532.1982,385.5 L1532.1982,410.7969 C1532.1982,420.7969 1499.3491,420.7969 1499.3491,420.7969 C1499.3491,420.7969 1466.5,420.7969 1466.5,410.7969 L1466.5,385.5" fill="#F1F1F1" style="stroke:#181818;stroke-width:0.5;"/><path d="M1466.5,385.5 C1466.5,395.5 1499.3491,395.5 1499.3491,395.5 C1499.3491,395.5 1532.1982,395.5 1532.1982,385.5" fill="none" style="stroke:#181818;stroke-width:0.5;"/><text fill="#000000" font-family="sans-serif" font-size="14" lengthAdjust="spacing" textLength="45.6982" x="1476.5" y="412.4951">SQLite</text></g><!--entity home--><g class="entity" data-entity="home" data-source-line="6" data-uid="ent0002" id="entity_home"><ellipse cx="55.3521" cy="52.5" fill="#F1F1F1" rx="8" ry="8" style="stroke:#181818;stroke-width:0.5;"/><path d="M55.3521,60.5 L55.3521,87.5 M42.3521,68.5 L68.3521,68.5 M55.3521,87.5 L42.3521,102.5 M55.3521,87.5 L68.3521,102.5" fill="none" style="stroke:#181818;stroke-width:0.5;"/><text fill="#000000" font-family="sans-serif" font-size="14" lengthAdjust="spacing" textLength="77.7041" x="16.5" y="116.9951">Home User</text></g><!--entity facility--><g class="entity" data-entity="facility" data-source-line="7" data-uid="ent0003" id="entity_facility"><ellipse cx="55.5435" cy="164.5" fill="#F1F1F1" rx="8" ry="8" style="stroke:#181818;stroke-width:0.5;"/><path d="M55.5435,172.5 L55.5435,199.5 M42.5435,180.5 L68.5435,180.5 M55.5435,199.5 L42.5435,214.5 M55.5435,199.5 L68.5435,214.5" fill="none" style="stroke:#181818;stroke-width:0.5;"/><text fill="#000000" font-family="sans-serif" font-size="14" lengthAdjust="spacing" textLength="99.0869" x="6" y="228.9951">Facility Admin</text></g><!--link home to mobileapp--><g class="link" data-entity-1="home" data-entity-2="mobileapp" data-source-line="38" data-uid="lnk21" id="link_home_mobileapp"><path d="M94.72,92.82 C153.49,109.55 261.06,140.54 278,148 C297.01,156.38 311.8084,164.6398 328.4384,175.0798" fill="none" id="home-to-mobileapp" style="stroke:#181818;stroke-width:1;"/><polygon fill="#181818" points="333.52,178.27,328.0243,170.097,329.2853,175.6115,323.7708,176.8725,333.52,178.27" style="stroke:#181818;stroke-width:1;"/><text fill="#000000" font-family="sans-serif" font-size="13" lengthAdjust="spacing" textLength="141.0322" x="136" y="102.0669">Monitors and controls</text></g><!--link home to landing--><g class="link" data-entity-1="home" data-entity-2="landing" data-source-line="39" data-uid="lnk22" id="link_home_landing"><path d="M94.68,80.43 C148.03,78.24 239.5551,74.4762 303.8351,71.8362" fill="none" id="home-to-landing" style="stroke:#181818;stroke-width:1;"/><polygon fill="#181818" points="309.83,71.59,300.6734,67.9627,304.8342,71.7952,301.0017,75.956,309.83,71.59" style="stroke:#181818;stroke-width:1;"/><text fill="#000000" font-family="sans-serif" font-size="13" lengthAdjust="spacing" textLength="117.2983" x="148" y="70.0669">Views information</text></g><!--link facility to mobileapp--><g class="link" data-entity-1="facility" data-entity-2="mobileapp" data-source-line="40" data-uid="lnk23" id="link_facility_mobileapp"><path d="M105.01,217.15 C114.74,220.82 125.03,224.05 135,226 C197.37,238.22 214.82,232.9 278,226 C293.28,224.33 303.8477,222.5229 318.6677,219.1729" fill="none" id="facility-to-mobileapp" style="stroke:#181818;stroke-width:1;"/><polygon fill="#181818" points="324.52,217.85,314.8596,215.9328,319.643,218.9524,316.6234,223.7359,324.52,217.85" style="stroke:#181818;stroke-width:1;"/><text fill="#000000" font-family="sans-serif" font-size="13" lengthAdjust="spacing" textLength="112.0171" x="150.5" y="222.0669">Manages devices</text></g><!--link facility to landing--><g class="link" data-entity-1="facility" data-entity-2="landing" data-source-line="41" data-uid="lnk24" id="link_facility_landing"><path d="M105.27,200.38 C152.58,204.15 224.82,203.33 278,173 C283.25,170.01 282.15,166.66 286,162 C305.15,138.82 324.3222,118.3167 342.0122,100.1667" fill="none" id="facility-to-landing" style="stroke:#181818;stroke-width:1;"/><polygon fill="#181818" points="346.2,95.87,337.0537,99.5232,342.7101,99.4506,342.7827,105.107,346.2,95.87" style="stroke:#181818;stroke-width:1;"/><text fill="#000000" font-family="sans-serif" font-size="13" lengthAdjust="spacing" textLength="111.2109" x="151" y="169.0669">Reviews services</text></g><!--link landing to webapp--><g class="link" data-entity-1="landing" data-entity-2="webapp" data-source-line="44" data-uid="lnk25" id="link_landing_webapp"><path d="M438.38,69 C507.97,69 613.65,69 687.79,69" fill="none" id="landing-to-webapp" style="stroke:#181818;stroke-width:1;"/><polygon fill="#181818" points="693.79,69,684.79,65,688.79,69,684.79,73,693.79,69" style="stroke:#181818;stroke-width:1;"/><text fill="#000000" font-family="sans-serif" font-size="13" lengthAdjust="spacing" textLength="190.0171" x="471" y="65.0669">Call to Action (Login/Sign-up)</text></g><!--link webapp to spa--><g class="link" data-entity-1="webapp" data-entity-2="spa" data-source-line="45" data-uid="lnk26" id="link_webapp_spa"><path d="M847.2,70.65 C916.75,72.16 1012.3314,74.2389 1075.4614,75.6189" fill="none" id="webapp-to-spa" style="stroke:#181818;stroke-width:1;"/><polygon fill="#181818" points="1081.46,75.75,1072.5496,71.5543,1076.4612,75.6407,1072.3747,79.5524,1081.46,75.75" style="stroke:#181818;stroke-width:1;"/><text fill="#000000" font-family="sans-serif" font-size="13" lengthAdjust="spacing" textLength="127.6514" x="884.5" y="68.0669">Loads main module</text></g><!--link mobileapp to sqlite_mobile--><g class="link" data-entity-1="mobileapp" data-entity-2="sqlite_mobile" data-source-line="48" data-uid="lnk27" id="link_mobileapp_sqlite_mobile"><path d="M423.37,204.51 C505.06,203.68 662.1703,202.0907 731.3203,201.3907" fill="none" id="mobileapp-to-sqlite_mobile" style="stroke:#181818;stroke-width:1;"/><polygon fill="#181818" points="737.32,201.33,728.28,197.4213,732.3203,201.3806,728.361,205.4209,737.32,201.33" style="stroke:#181818;stroke-width:1;"/><text fill="#000000" font-family="sans-serif" font-size="13" lengthAdjust="spacing" textLength="113.2866" x="509.5" y="198.0669">Local persistence</text></g><!--link mobileapp to gateway--><g class="link" data-entity-1="mobileapp" data-entity-2="gateway" data-source-line="49" data-uid="lnk28" id="link_mobileapp_gateway"><path d="M423.16,212.19 C481.46,220.6 582.68,234.21 670,241 C957.51,263.36 1296.5201,267.83 1432.8701,268.74" fill="none" id="mobileapp-to-gateway" style="stroke:#181818;stroke-width:1;"/><polygon fill="#181818" points="1438.87,268.78,1429.8969,264.72,1433.8701,268.7466,1429.8435,272.7198,1438.87,268.78" style="stroke:#181818;stroke-width:1;"/><text fill="#000000" font-family="sans-serif" font-size="13" lengthAdjust="spacing" textLength="140.1753" x="878" y="250.0669">HTTPS/REST requests</text></g><!--link spa to gateway--><g class="link" data-entity-1="spa" data-entity-2="gateway" data-source-line="50" data-uid="lnk29" id="link_spa_gateway"><path d="M1174.63,95.06 C1237.99,129.09 1369.9942,199.981 1443.8342,239.641" fill="none" id="spa-to-gateway" style="stroke:#181818;stroke-width:1;"/><polygon fill="#181818" points="1449.12,242.48,1443.084,234.6976,1444.7152,240.1141,1439.2986,241.7453,1449.12,242.48" style="stroke:#181818;stroke-width:1;"/><text fill="#000000" font-family="sans-serif" font-size="13" lengthAdjust="spacing" textLength="108.8687" x="1275" y="141.0669">API consumption</text></g><!--link gateway to platform--><g class="link" data-entity-1="gateway" data-entity-2="platform" data-source-line="53" data-uid="lnk30" id="link_gateway_platform"><path d="M1499.5,242.23 C1499.5,226.43 1499.5,212.51 1499.5,196.72" fill="none" id="gateway-to-platform" style="stroke:#181818;stroke-width:1;"/><polygon fill="#181818" points="1499.5,190.72,1495.5,199.72,1499.5,195.72,1503.5,199.72,1499.5,190.72" style="stroke:#181818;stroke-width:1;"/><text fill="#000000" font-family="sans-serif" font-size="13" lengthAdjust="spacing" textLength="50.4258" x="1463" y="221.0669">Routing</text></g><!--link platform to postgres--><g class="link" data-entity-1="platform" data-entity-2="postgres" data-source-line="54" data-uid="lnk31" id="link_platform_postgres"><path d="M1568.1,181.58 C1578.12,184.12 1588.32,186.66 1598,189 C1662.23,204.56 1729.564,219.8634 1783.124,231.8134" fill="none" id="platform-to-postgres" style="stroke:#181818;stroke-width:1;"/><polygon fill="#181818" points="1788.98,233.12,1781.067,227.2562,1784.1,232.0312,1779.3249,235.0642,1788.98,233.12" style="stroke:#181818;stroke-width:1;"/><text fill="#000000" font-family="sans-serif" font-size="13" lengthAdjust="spacing" textLength="118.2886" x="1619.5" y="185.0669">Persistent storage</text></g><!--link platform to redis--><g class="link" data-entity-1="platform" data-entity-2="redis" data-source-line="55" data-uid="lnk32" id="link_platform_redis"><path d="M1568.3,163.44 C1639.73,162.86 1744.6002,161.9886 1808.8102,161.4686" fill="none" id="platform-to-redis" style="stroke:#181818;stroke-width:1;"/><polygon fill="#181818" points="1814.81,161.42,1805.7779,157.493,1809.8102,161.4605,1805.8427,165.4928,1814.81,161.42" style="stroke:#181818;stroke-width:1;"/><text fill="#000000" font-family="sans-serif" font-size="13" lengthAdjust="spacing" textLength="159.2817" x="1599" y="158.0669">Session/Real-time cache</text></g><!--link embedded to edge--><g class="link" data-entity-1="embedded" data-entity-2="edge" data-source-line="58" data-uid="lnk33" id="link_embedded_edge"><path d="M1140,476.23 C1140,460.43 1140,446.51 1140,430.72" fill="none" id="embedded-to-edge" style="stroke:#181818;stroke-width:1;"/><polygon fill="#181818" points="1140,424.72,1136,433.72,1140,429.72,1144,433.72,1140,424.72" style="stroke:#181818;stroke-width:1;"/><text fill="#000000" font-family="sans-serif" font-size="13" lengthAdjust="spacing" textLength="107.1484" x="1075" y="455.0669">Sends telemetry</text></g><!--link edge to sqlite_edge--><g class="link" data-entity-1="edge" data-entity-2="sqlite_edge" data-source-line="59" data-uid="lnk34" id="link_edge_sqlite_edge"><path d="M1209.08,398 C1286.07,398 1402.2,398 1460.06,398" fill="none" id="edge-to-sqlite_edge" style="stroke:#181818;stroke-width:1;"/><polygon fill="#181818" points="1466.06,398,1457.06,394,1461.06,398,1457.06,402,1466.06,398" style="stroke:#181818;stroke-width:1;"/><text fill="#000000" font-family="sans-serif" font-size="13" lengthAdjust="spacing" textLength="110.4556" x="1274" y="394.0669">Local data buffer</text></g><!--link edge to gateway--><g class="link" data-entity-1="edge" data-entity-2="gateway" data-source-line="60" data-uid="lnk35" id="link_edge_gateway"><path d="M1209.24,380.97 C1261.92,366.97 1336.19,345.35 1399,320 C1416.37,312.99 1429.4615,306.7974 1445.6615,298.3374" fill="none" id="edge-to-gateway" style="stroke:#181818;stroke-width:1;"/><polygon fill="#181818" points="1450.98,295.56,1441.1507,296.1805,1446.548,297.8745,1444.8539,303.2718,1450.98,295.56" style="stroke:#181818;stroke-width:1;"/><text fill="#000000" font-family="sans-serif" font-size="13" lengthAdjust="spacing" textLength="138.106" x="1260" y="316.0669">Data synchronization</text></g><!--SRC=[XLLDRzf04BtxLunyQ8aI53LIBprKSWafYOXACKrKAL8rs8DPPTbrTjSWKlM_TtRN1a9IbGlO-zxCcu-tI5euS1gCg9OEIc6eS4Ah9B6FGjLeS0Kr5ezOKUwsai2Vewea7G3i4akz4Qg21KfBIOA5qmRIaLuH_B1aKa0BItxgJgwm45AuBMJbIgXml6XV9Sak1UDOpnmjfV0x0VuS7DtgkU3lhAuVLEzADiwHEGcHLk44wpfGIdJeGq2QVnyBHm5YdpWL_Oh8vC-Bd7Ta2fBGkp9QEL9b3Bh-y5h265NfgvvmTrZ4Q7OxFeD1df_1JHvPCYB-aU4IxNAkqNGfBbwdkAUvBn5wcQeQYMs56svAMzu1DfzaHpXRur7gxBan1CCrAGUZPWwzBppSMEIhtDda6hvci-5zzfEhoslZQnr8tRHwAtIqmUrRj8b4jz1cnRmRN2DSV3o3621Iw_OyS8_652LUTiyCUr0JRLrbY2SOwV7H7Z6dL0eR5GQOySzlDk1Qpw0tB2jwg-xXQavbIQLll1G5UZzm8OFJqoYUslDNF8vtn9bitL8hk99e7rioW_wxbm74kjz3lzyF3e8foH3KBaLj_Ul4-ub_VDxlEtpojb22BMQ1DmyAtc2ZfKttu7OZFVHEqCQ2K7uG8NQQT2Py8ougtd8B9Qr5GVO8UX1roW0VbqMtoBQCpa_S3Rq95NGi7o6kj0ymG2dzZPI5YmXwOrq9TPwBIlMR-YHDMgGdyNvxnbXZoRP7eLXpsKZQvMmlYNVWVJJGIiNRBJPmNr-8TNWbnAW5IgZ9M65PTy5HNpBQ_VVOqMmsoS-dmtp62_7Ka7LSjrTtXFFUuA7OPbN7XhSwMnV2DrCicMp2E8B8ZjmF5pH7wwmJUgqRnmrCazrBdwzpXqTCElaEBAy5Z_0873pYaJbPoqdFfuIoxmIlIu4iPYUHBNCUDdmtliu7Usr-RsCinGDn96b5pcpJ91mSTBa3nXvxAy2yMIpuds8FFMYRlmp0RbMnv1qIpt5P_m80]--></g></svg>