<svg xmlns="http://www.w3.org/2000/svg" xmlns:xlink="http://www.w3.org/1999/xlink" contentStyleType="text/css" data-diagram-type="DESCRIPTION" height="728px" preserveAspectRatio="none" style="width:1972px;height:728px;background:#FFFFFF;" version="1.1" viewBox="0 0 1972 728" width="1972px" zoomAndPan="magnify"><defs/><g><!--cluster Firebase--><g class="cluster" data-entity="Firebase" data-source-line="9" data-uid="ent0004" id="cluster_Firebase"><rect fill="none" height="105" rx="2.5" ry="2.5" style="stroke:#181818;stroke-width:1;" width="523" x="309" y="602"/><text fill="#000000" font-family="sans-serif" font-size="14" font-weight="bold" lengthAdjust="spacing" textLength="68.0586" x="536.4707" y="616.9951">Firebase</text></g><!--cluster v1--><g class="cluster" data-entity="v1" data-source-line="14" data-uid="ent0007" id="cluster_v1"><rect fill="none" height="105" rx="2.5" ry="2.5" style="stroke:#181818;stroke-width:1;" width="160" x="294" y="466"/><text fill="#000000" font-family="sans-serif" font-size="14" font-weight="bold" lengthAdjust="spacing" textLength="139.7266" x="304.1367" y="480.9951">Vercel (Frontend)</text></g><!--cluster v2--><g class="cluster" data-entity="v2" data-source-line="18" data-uid="ent0009" id="cluster_v2"><rect fill="none" height="103" rx="2.5" ry="2.5" style="stroke:#181818;stroke-width:1;" width="570" x="690.5" y="475"/><text fill="#000000" font-family="sans-serif" font-size="14" font-weight="bold" lengthAdjust="spacing" textLength="152.8789" x="899.0605" y="489.9951">Vercel (Dashboard)</text></g><!--cluster Azure Event Hub (Backend)--><g class="cluster" data-entity="Azure Event Hub .Backend." data-source-line="23" data-uid="ent0012" id="cluster_Azure Event Hub .Backend."><rect fill="none" height="210" rx="2.5" ry="2.5" style="stroke:#181818;stroke-width:1;" width="870" x="1096" y="7"/><text fill="#000000" font-family="sans-serif" font-size="14" font-weight="bold" lengthAdjust="spacing" textLength="216.5283" x="1422.7358" y="21.9951">Azure Event Hub (Backend)</text></g><!--cluster Azure IoT (Edge)--><g class="cluster" data-entity="Azure IoT .Edge." data-source-line="35" data-uid="ent0018" id="cluster_Azure IoT .Edge."><rect fill="none" height="210" rx="2.5" ry="2.5" style="stroke:#181818;stroke-width:1;" width="557" x="678" y="241"/><text fill="#000000" font-family="sans-serif" font-size="14" font-weight="bold" lengthAdjust="spacing" textLength="131.373" x="890.8135" y="255.9951">Azure IoT (Edge)</text></g><!--entity mobileapp--><g class="entity" data-entity="mobileapp" data-source-line="10" data-uid="ent0005" id="entity_mobileapp"><rect fill="#F1F1F1" height="52.5938" rx="2.5" ry="2.5" style="stroke:#181818;stroke-width:0.5;" width="97.7246" x="325" y="637.5"/><text fill="#000000" font-family="sans-serif" font-size="14" lengthAdjust="spacing" textLength="77.7246" x="335" y="660.4951">Mobile App</text><text fill="#000000" font-family="sans-serif" font-size="14" lengthAdjust="spacing" textLength="57.0869" x="335" y="676.792">(Flutter)</text></g><!--entity sqlite_mobile--><g class="entity" data-entity="sqlite_mobile" data-source-line="11" data-uid="ent0006" id="entity_sqlite_mobile"><path d="M750,647.5 C750,637.5 782.8491,637.5 782.8491,637.5 C782.8491,637.5 815.6982,637.5 815.6982,647.5 L815.6982,672.7969 C815.6982,682.7969 782.8491,682.7969 782.8491,682.7969 C782.8491,682.7969 750,682.7969 750,672.7969 L750,647.5" fill="#F1F1F1" style="stroke:#181818;stroke-width:0.5;"/><path d="M750,647.5 C750,657.5 782.8491,657.5 782.8491,657.5 C782.8491,657.5 815.6982,657.5 815.6982,647.5" fill="none" style="stroke:#181818;stroke-width:0.5;"/><text fill="#000000" font-family="sans-serif" font-size="14" lengthAdjust="spacing" textLength="45.6982" x="760" y="674.4951">SQLite</text></g><!--entity landing--><g class="entity" data-entity="landing" data-source-line="15" data-uid="ent0008" id="entity_landing"><rect fill="#F1F1F1" height="52.5938" rx="2.5" ry="2.5" style="stroke:#181818;stroke-width:0.5;" width="128.2471" x="310" y="501.5"/><text fill="#000000" font-family="sans-serif" font-size="14" lengthAdjust="spacing" textLength="94.7598" x="320" y="524.4951">Landing Page</text><text fill="#000000" font-family="sans-serif" font-size="14" lengthAdjust="spacing" textLength="108.2471" x="320" y="540.792">(HTML, CSS, JS)</text></g><!--entity webapp--><g class="entity" data-entity="webapp" data-source-line="19" data-uid="ent0010" id="entity_webapp"><rect fill="#F1F1F1" height="36.2969" rx="2.5" ry="2.5" style="stroke:#181818;stroke-width:0.5;" width="152.9521" x="706.5" y="510"/><text fill="#000000" font-family="sans-serif" font-size="14" lengthAdjust="spacing" textLength="132.9521" x="716.5" y="532.9951">Web App (Angular)</text></g><!--entity spa--><g class="entity" data-entity="spa" data-source-line="20" data-uid="ent0011" id="entity_spa"><rect fill="#F1F1F1" height="36.2969" rx="2.5" ry="2.5" style="stroke:#181818;stroke-width:0.5;" width="116.7148" x="1127.5" y="510"/><text fill="#000000" font-family="sans-serif" font-size="14" lengthAdjust="spacing" textLength="96.7148" x="1137.5" y="532.9951">SPA (Angular)</text></g><!--entity gateway--><g class="entity" data-entity="gateway" data-source-line="25" data-uid="ent0013" id="entity_gateway"><rect fill="#F1F1F1" height="52.5938" rx="2.5" ry="2.5" style="stroke:#181818;stroke-width:0.5;" width="120.543" x="1445" y="147.5"/><text fill="#000000" font-family="sans-serif" font-size="14" lengthAdjust="spacing" textLength="96.3936" x="1455" y="170.4951">API GATEWAY</text><text fill="#000000" font-family="sans-serif" font-size="14" lengthAdjust="spacing" textLength="100.543" x="1455" y="186.792">(Spring Cloud)</text></g><!--entity platform--><g class="entity" data-entity="platform" data-source-line="27" data-uid="ent0014" id="entity_platform"><rect fill="#F1F1F1" height="52.5938" rx="2.5" ry="2.5" style="stroke:#181818;stroke-width:0.5;" width="136.8398" x="1437" y="42.5"/><text fill="#000000" font-family="sans-serif" font-size="14" lengthAdjust="spacing" textLength="85.8867" x="1447" y="65.4951">API Platform</text><text fill="#000000" font-family="sans-serif" font-size="14" lengthAdjust="spacing" textLength="116.8398" x="1447" y="81.792">(Java 25, Spring)</text></g><!--entity kafka--><g class="entity" data-entity="kafka" data-source-line="29" data-uid="ent0015" id="entity_kafka"><path d="M1117,151.5 L1255.0918,151.5 C1260.0918,151.5 1260.0918,172.7969 1260.0918,172.7969 C1260.0918,172.7969 1260.0918,194.0938 1255.0918,194.0938 L1117,194.0938 C1112,194.0938 1112,172.7969 1112,172.7969 C1112,172.7969 1112,151.5 1117,151.5" fill="#F1F1F1" style="stroke:#181818;stroke-width:0.5;"/><path d="M1255.0918,151.5 C1250.0918,151.5 1250.0918,172.7969 1250.0918,172.7969 C1250.0918,194.0938 1255.0918,194.0938 1255.0918,194.0938" fill="none" style="stroke:#181818;stroke-width:0.5;"/><text fill="#000000" font-family="sans-serif" font-size="14" lengthAdjust="spacing" textLength="39.375" x="1117" y="169.4951">Kafka</text><text fill="#000000" font-family="sans-serif" font-size="14" lengthAdjust="spacing" textLength="128.0918" x="1117" y="185.792">(Event Streaming)</text></g><!--entity postgres--><g class="entity" data-entity="postgres" data-source-line="31" data-uid="ent0016" id="entity_postgres"><path d="M1795,134 C1795,124 1872.5596,124 1872.5596,124 C1872.5596,124 1950.1191,124 1950.1191,134 L1950.1191,175.5938 C1950.1191,185.5938 1872.5596,185.5938 1872.5596,185.5938 C1872.5596,185.5938 1795,185.5938 1795,175.5938 L1795,134" fill="#F1F1F1" style="stroke:#181818;stroke-width:0.5;"/><path d="M1795,134 C1795,144 1872.5596,144 1872.5596,144 C1872.5596,144 1950.1191,144 1950.1191,134" fill="none" style="stroke:#181818;stroke-width:0.5;"/><text fill="#000000" font-family="sans-serif" font-size="14" lengthAdjust="spacing" textLength="135.1191" x="1805" y="160.9951">Azure Database for</text><text fill="#000000" font-family="sans-serif" font-size="14" lengthAdjust="spacing" textLength="80.7529" x="1805" y="177.292">PostgreSQL</text></g><!--entity redis--><g class="entity" data-entity="redis" data-source-line="32" data-uid="ent0017" id="entity_redis"><path d="M1821,53.5 C1821,43.5 1872.4258,43.5 1872.4258,43.5 C1872.4258,43.5 1923.8516,43.5 1923.8516,53.5 L1923.8516,78.7969 C1923.8516,88.7969 1872.4258,88.7969 1872.4258,88.7969 C1872.4258,88.7969 1821,88.7969 1821,78.7969 L1821,53.5" fill="#F1F1F1" style="stroke:#181818;stroke-width:0.5;"/><path d="M1821,53.5 C1821,63.5 1872.4258,63.5 1872.4258,63.5 C1872.4258,63.5 1923.8516,63.5 1923.8516,53.5" fill="none" style="stroke:#181818;stroke-width:0.5;"/><text fill="#000000" font-family="sans-serif" font-size="14" lengthAdjust="spacing" textLength="82.8516" x="1831" y="80.4951">Redis Cloud</text></g><!--entity embedded--><g class="entity" data-entity="embedded" data-source-line="36" data-uid="ent0019" id="entity_embedded"><rect fill="#F1F1F1" height="52.5938" rx="2.5" ry="2.5" style="stroke:#181818;stroke-width:0.5;" width="177.9307" x="694" y="381.5"/><text fill="#000000" font-family="sans-serif" font-size="14" lengthAdjust="spacing" textLength="157.9307" x="704" y="404.4951">Embedded Application</text><text fill="#000000" font-family="sans-serif" font-size="14" lengthAdjust="spacing" textLength="44.1602" x="704" y="420.792">(C++)</text></g><!--entity edge--><g class="entity" data-entity="edge" data-source-line="37" data-uid="ent0020" id="entity_edge"><rect fill="#F1F1F1" height="52.5938" rx="2.5" ry="2.5" style="stroke:#181818;stroke-width:0.5;" width="137.9063" x="714" y="276.5"/><text fill="#000000" font-family="sans-serif" font-size="14" lengthAdjust="spacing" textLength="117.9063" x="724" y="299.4951">Edge Application</text><text fill="#000000" font-family="sans-serif" font-size="14" lengthAdjust="spacing" textLength="99.8252" x="724" y="315.792">(Python Flask)</text></g><!--entity sqlite_edge--><g class="entity" data-entity="sqlite_edge" data-source-line="38" data-uid="ent0021" id="entity_sqlite_edge"><path d="M1153,290.5 C1153,280.5 1185.8491,280.5 1185.8491,280.5 C1185.8491,280.5 1218.6982,280.5 1218.6982,290.5 L1218.6982,315.7969 C1218.6982,325.7969 1185.8491,325.7969 1185.8491,325.7969 C1185.8491,325.7969 1153,325.7969 1153,315.7969 L1153,290.5" fill="#F1F1F1" style="stroke:#181818;stroke-width:0.5;"/><path d="M1153,290.5 C1153,300.5 1185.8491,300.5 1185.8491,300.5 C1185.8491,300.5 1218.6982,300.5 1218.6982,290.5" fill="none" style="stroke:#181818;stroke-width:0.5;"/><text fill="#000000" font-family="sans-serif" font-size="14" lengthAdjust="spacing" textLength="45.6982" x="1163" y="317.4951">SQLite</text></g><!--entity home--><g class="entity" data-entity="home" data-source-line="6" data-uid="ent0002" id="entity_home"><ellipse cx="55.3521" cy="511.5" fill="#F1F1F1" rx="8" ry="8" style="stroke:#181818;stroke-width:0.5;"/><path d="M55.3521,519.5 L55.3521,546.5 M42.3521,527.5 L68.3521,527.5 M55.3521,546.5 L42.3521,561.5 M55.3521,546.5 L68.3521,561.5" fill="none" style="stroke:#181818;stroke-width:0.5;"/><text fill="#000000" font-family="sans-serif" font-size="14" lengthAdjust="spacing" textLength="77.7041" x="16.5" y="575.9951">Home User</text></g><!--entity facility--><g class="entity" data-entity="facility" data-source-line="7" data-uid="ent0003" id="entity_facility"><ellipse cx="55.5435" cy="623.5" fill="#F1F1F1" rx="8" ry="8" style="stroke:#181818;stroke-width:0.5;"/><path d="M55.5435,631.5 L55.5435,658.5 M42.5435,639.5 L68.5435,639.5 M55.5435,658.5 L42.5435,673.5 M55.5435,658.5 L68.5435,673.5" fill="none" style="stroke:#181818;stroke-width:0.5;"/><text fill="#000000" font-family="sans-serif" font-size="14" lengthAdjust="spacing" textLength="99.0869" x="6" y="687.9951">Facility Admin</text></g><!--link home to mobileapp--><g class="link" data-entity-1="home" data-entity-2="mobileapp" data-source-line="42" data-uid="lnk22" id="link_home_mobileapp"><path d="M94.72,551.82 C153.49,568.55 261.06,599.54 278,607 C297.01,615.38 311.8084,623.6398 328.4384,634.0798" fill="none" id="home-to-mobileapp" style="stroke:#181818;stroke-width:1;"/><polygon fill="#181818" points="333.52,637.27,328.0243,629.097,329.2853,634.6115,323.7708,635.8725,333.52,637.27" style="stroke:#181818;stroke-width:1;"/><text fill="#000000" font-family="sans-serif" font-size="13" lengthAdjust="spacing" textLength="141.0322" x="136" y="561.0669">Monitors and controls</text></g><!--link home to landing--><g class="link" data-entity-1="home" data-entity-2="landing" data-source-line="43" data-uid="lnk23" id="link_home_landing"><path d="M94.68,539.43 C148.03,537.24 239.5551,533.4762 303.8351,530.8362" fill="none" id="home-to-landing" style="stroke:#181818;stroke-width:1;"/><polygon fill="#181818" points="309.83,530.59,300.6734,526.9627,304.8342,530.7952,301.0017,534.956,309.83,530.59" style="stroke:#181818;stroke-width:1;"/><text fill="#000000" font-family="sans-serif" font-size="13" lengthAdjust="spacing" textLength="117.2983" x="148" y="529.0669">Views information</text></g><!--link facility to mobileapp--><g class="link" data-entity-1="facility" data-entity-2="mobileapp" data-source-line="44" data-uid="lnk24" id="link_facility_mobileapp"><path d="M105.01,676.15 C114.74,679.82 125.03,683.05 135,685 C197.37,697.22 214.82,691.9 278,685 C293.28,683.33 303.8477,681.5229 318.6677,678.1729" fill="none" id="facility-to-mobileapp" style="stroke:#181818;stroke-width:1;"/><polygon fill="#181818" points="324.52,676.85,314.8596,674.9328,319.643,677.9524,316.6234,682.7359,324.52,676.85" style="stroke:#181818;stroke-width:1;"/><text fill="#000000" font-family="sans-serif" font-size="13" lengthAdjust="spacing" textLength="112.0171" x="150.5" y="681.0669">Manages devices</text></g><!--link facility to landing--><g class="link" data-entity-1="facility" data-entity-2="landing" data-source-line="45" data-uid="lnk25" id="link_facility_landing"><path d="M105.27,659.38 C152.58,663.15 224.82,662.33 278,632 C283.25,629.01 282.15,625.66 286,621 C305.15,597.82 324.3222,577.3167 342.0122,559.1667" fill="none" id="facility-to-landing" style="stroke:#181818;stroke-width:1;"/><polygon fill="#181818" points="346.2,554.87,337.0537,558.5232,342.7101,558.4506,342.7827,564.107,346.2,554.87" style="stroke:#181818;stroke-width:1;"/><text fill="#000000" font-family="sans-serif" font-size="13" lengthAdjust="spacing" textLength="111.2109" x="151" y="628.0669">Reviews services</text></g><!--link landing to webapp--><g class="link" data-entity-1="landing" data-entity-2="webapp" data-source-line="48" data-uid="lnk26" id="link_landing_webapp"><path d="M438.15,528 C510.49,528 622.97,528 700.23,528" fill="none" id="landing-to-webapp" style="stroke:#181818;stroke-width:1;"/><polygon fill="#181818" points="706.23,528,697.23,524,701.23,528,697.23,532,706.23,528" style="stroke:#181818;stroke-width:1;"/><text fill="#000000" font-family="sans-serif" font-size="13" lengthAdjust="spacing" textLength="190.0171" x="471" y="524.0669">Call to Action (Login/Sign-up)</text></g><!--link webapp to spa--><g class="link" data-entity-1="webapp" data-entity-2="spa" data-source-line="49" data-uid="lnk27" id="link_webapp_spa"><path d="M859.9,528 C937.66,528 1050.87,528 1121.27,528" fill="none" id="webapp-to-spa" style="stroke:#181818;stroke-width:1;"/><polygon fill="#181818" points="1127.27,528,1118.27,524,1122.27,528,1118.27,532,1127.27,528" style="stroke:#181818;stroke-width:1;"/><text fill="#000000" font-family="sans-serif" font-size="13" lengthAdjust="spacing" textLength="127.6514" x="927.5" y="524.0669">Loads main module</text></g><!--link mobileapp to sqlite_mobile--><g class="link" data-entity-1="mobileapp" data-entity-2="sqlite_mobile" data-source-line="52" data-uid="lnk28" id="link_mobileapp_sqlite_mobile"><path d="M423.29,663.53 C507.41,662.7 672.6503,661.079 743.8403,660.379" fill="none" id="mobileapp-to-sqlite_mobile" style="stroke:#181818;stroke-width:1;"/><polygon fill="#181818" points="749.84,660.32,740.8011,656.4087,744.8402,660.3692,740.8798,664.4083,749.84,660.32" style="stroke:#181818;stroke-width:1;"/><text fill="#000000" font-family="sans-serif" font-size="13" lengthAdjust="spacing" textLength="113.2866" x="509.5" y="658.0669">Local persistence</text></g><!--link mobileapp to gateway--><g class="link" data-entity-1="mobileapp" data-entity-2="gateway" data-source-line="53" data-uid="lnk29" id="link_mobileapp_gateway"><path d="M423.12,671.7 C481.39,680.59 582.58,694.69 670,700 C940.97,716.47 1038.04,721.47 1268.5,578 C1344.7,530.56 1359.39,507.09 1407,431 C1455.22,353.93 1484.1821,255.0626 1496.6021,206.5426" fill="none" id="mobileapp-to-gateway" style="stroke:#181818;stroke-width:1;"/><polygon fill="#181818" points="1498.09,200.73,1491.9831,208.457,1496.8501,205.5738,1499.7332,210.4408,1498.09,200.73" style="stroke:#181818;stroke-width:1;"/><text fill="#000000" font-family="sans-serif" font-size="13" lengthAdjust="spacing" textLength="140.1753" x="921" y="672.0669">HTTPS/REST requests</text></g><!--link spa to gateway--><g class="link" data-entity-1="spa" data-entity-2="gateway" data-source-line="54" data-uid="lnk30" id="link_spa_gateway"><path d="M1207.34,509.91 C1224.19,494.66 1248.52,472.03 1268.5,451 C1352.04,363.05 1439.2756,255.8982 1479.5456,205.4782" fill="none" id="spa-to-gateway" style="stroke:#181818;stroke-width:1;"/><polygon fill="#181818" points="1483.29,200.79,1474.5479,205.326,1480.1696,204.6968,1480.7988,210.3186,1483.29,200.79" style="stroke:#181818;stroke-width:1;"/><text fill="#000000" font-family="sans-serif" font-size="13" lengthAdjust="spacing" textLength="108.8687" x="1294.5" y="292.0669">API consumption</text></g><!--link gateway to platform--><g class="link" data-entity-1="gateway" data-entity-2="platform" data-source-line="57" data-uid="lnk31" id="link_gateway_platform"><path d="M1505.5,147.23 C1505.5,131.43 1505.5,117.51 1505.5,101.72" fill="none" id="gateway-to-platform" style="stroke:#181818;stroke-width:1;"/><polygon fill="#181818" points="1505.5,95.72,1501.5,104.72,1505.5,100.72,1509.5,104.72,1505.5,95.72" style="stroke:#181818;stroke-width:1;"/><text fill="#000000" font-family="sans-serif" font-size="13" lengthAdjust="spacing" textLength="50.4258" x="1469" y="126.0669">Routing</text></g><!--link platform to postgres--><g class="link" data-entity-1="platform" data-entity-2="postgres" data-source-line="58" data-uid="lnk32" id="link_platform_postgres"><path d="M1574.1,86.58 C1584.12,89.12 1594.32,91.66 1604,94 C1668.23,109.56 1735.564,124.8634 1789.124,136.8134" fill="none" id="platform-to-postgres" style="stroke:#181818;stroke-width:1;"/><polygon fill="#181818" points="1794.98,138.12,1787.067,132.2562,1790.1,137.0312,1785.3249,140.0642,1794.98,138.12" style="stroke:#181818;stroke-width:1;"/><text fill="#000000" font-family="sans-serif" font-size="13" lengthAdjust="spacing" textLength="118.2886" x="1625.5" y="90.0669">Persistent storage</text></g><!--link platform to redis--><g class="link" data-entity-1="platform" data-entity-2="redis" data-source-line="59" data-uid="lnk33" id="link_platform_redis"><path d="M1574.3,68.44 C1645.73,67.86 1750.6002,66.9886 1814.8102,66.4686" fill="none" id="platform-to-redis" style="stroke:#181818;stroke-width:1;"/><polygon fill="#181818" points="1820.81,66.42,1811.7779,62.493,1815.8102,66.4605,1811.8427,70.4928,1820.81,66.42" style="stroke:#181818;stroke-width:1;"/><text fill="#000000" font-family="sans-serif" font-size="13" lengthAdjust="spacing" textLength="159.2817" x="1605" y="63.0669">Session/Real-time cache</text></g><!--link edge to kafka--><g class="link" data-entity-1="edge" data-entity-2="kafka" data-source-line="62" data-uid="lnk34" id="link_edge_kafka"><path d="M852.02,280.95 C926.43,256.82 1039.1925,220.2704 1112.9425,196.3604" fill="none" id="edge-to-kafka" style="stroke:#181818;stroke-width:1;"/><polygon fill="#181818" points="1118.65,194.51,1108.8551,193.4806,1113.8937,196.052,1111.3223,201.0906,1118.65,194.51" style="stroke:#181818;stroke-width:1;"/><text fill="#000000" font-family="sans-serif" font-size="13" lengthAdjust="spacing" textLength="176.9028" x="903" y="204.0669">Publishes telemetry events</text></g><!--link kafka to platform--><g class="link" data-entity-1="kafka" data-entity-2="platform" data-source-line="63" data-uid="lnk35" id="link_kafka_platform"><path d="M1252.79,151.45 C1306.64,133.81 1376.8381,110.8178 1431.1781,93.0178" fill="none" id="kafka-to-platform" style="stroke:#181818;stroke-width:1;"/><polygon fill="#181818" points="1436.88,91.15,1427.082,90.1504,1432.1284,92.7065,1429.5723,97.7529,1436.88,91.15" style="stroke:#181818;stroke-width:1;"/><text fill="#000000" font-family="sans-serif" font-size="13" lengthAdjust="spacing" textLength="115.6479" x="1291" y="99.0669">Consumes events</text></g><!--link embedded to edge--><g class="link" data-entity-1="embedded" data-entity-2="edge" data-source-line="66" data-uid="lnk36" id="link_embedded_edge"><path d="M783,381.23 C783,365.43 783,351.51 783,335.72" fill="none" id="embedded-to-edge" style="stroke:#181818;stroke-width:1;"/><polygon fill="#181818" points="783,329.72,779,338.72,783,334.72,787,338.72,783,329.72" style="stroke:#181818;stroke-width:1;"/><text fill="#000000" font-family="sans-serif" font-size="13" lengthAdjust="spacing" textLength="107.1484" x="718" y="360.0669">Sends telemetry</text></g><!--link edge to sqlite_edge--><g class="link" data-entity-1="edge" data-entity-2="sqlite_edge" data-source-line="67" data-uid="lnk37" id="link_edge_sqlite_edge"><path d="M852.02,303 C939.51,303 1081.89,303 1146.89,303" fill="none" id="edge-to-sqlite_edge" style="stroke:#181818;stroke-width:1;"/><polygon fill="#181818" points="1152.89,303,1143.89,299,1147.89,303,1143.89,307,1152.89,303" style="stroke:#181818;stroke-width:1;"/><text fill="#000000" font-family="sans-serif" font-size="13" lengthAdjust="spacing" textLength="110.4556" x="936" y="299.0669">Local data buffer</text></g><!--SRC=[XLLTZzCu57tFhxZA0tJ4L2EGUDc7bKBfC43HPfi2Ga92jybjQjMnW-rCLKRxt_VQJfgIcTNsfKryphcVnvMqS-0q657l7LJ2KEc4LabY3qArQB215ii3rbIuaoJmvwXgIHS0kyTA7uMgOOVIKf9WwRI1z4ut19yjcHJGmfwVXfDRB8KKxWHPrGWLZdVzgoGvXs0SvxD5Ioay9C2VYwDFUYluEslRxsfsApldo5m5fIQSODi6IeKElGIanTyhuIX0x4yEHJyYClddjvXVo9GaONPhj7AagYXw__9n2YjKbQywv-vm4dURJwjhM1J5DNme8aj6n7z4U8jslzLeXX2l7eVuIbjV8imoLNSI-mgFt9I-l0jiaMSJd6rn4ZhxrHc2vJqf1tVT5cPlUBYno8TaAfZbx-5Tjbb-pRvnUKLhVB4BgRi-uHeT7V4KQ4znSubkfqt3v0zuZ_3gzJL4bSXl-_DHu6T77PC_ukw0p8fv5iuGDcVMmH-Eb76-iRQtmpChVrUvjgusnAEF4UEZdJ3NL0aRAmimuv-VxDnxlO7PighfwecLN3PRgYgg_CIaAD4RYQjOl7WHCwV-_16FzIQS_EJsMi6jH7leoGpwtuKE8CxxESpdys0zM9CCedOlMkjV9zw8_EFFqIZmX_UJ4knD2xooKFBg6orjEeBxLVRGBuAE5eJoimlQQJAuzmbTL6mF2nNTYvBi17gXkcQ0r-MaUsHVnc14xeO-XWe6bbU8Nl022vJINsLPkC5WjjArK3U5gDMyQw_If4Tw4Xl3CrOQAxulK2ZEkUeadMFsjyipy0PSQANYjHWREDONj2xlagXQeeIMZ1MMyovPzNT6xnkFlTjiyk9clImsl12y_TPntJwx2SxRYOTYkwQD3U_pxEqBVvbopsGJnX6I7CZpSBEpsk2sq6lTEMvWcfnV-dY3EpmY7z9tO7ajU8GJSF28HnPaBGUzMHFAkHEyBYLoCkSKeubpeqiF35ER9tvHWqnmSmZORQMmN0GuajIGCoSWJ-M6HD1yKiGYz8C90wmFo1wz2POwxyjWlB4P8Nv8NbKN4TCniGj7ZKFrteDjjzlnVzg_]--></g></svg>