<svg xmlns="http://www.w3.org/2000/svg" xmlns:xlink="http://www.w3.org/1999/xlink" contentStyleType="text/css" data-diagram-type="CLASS" height="407px" preserveAspectRatio="none" style="width:900px;height:407px;background:#FFFFFF;" version="1.1" viewBox="0 0 900 407" width="900px" zoomAndPan="magnify"><title>Identity &amp; Access - Database Design Diagram</title><defs/><g><g class="title" data-source-line="1"><text fill="#000000" font-family="sans-serif" font-size="14" font-weight="bold" lengthAdjust="spacing" textLength="358.4287" x="264.2505" y="22.9951">Identity &amp; Access - Database Design Diagram</text></g><!--class users--><g class="entity" data-entity="users" data-source-line="6" data-uid="ent0002" id="entity_users"><rect fill="#F1F1F1" height="156.375" rx="2.5" ry="2.5" style="stroke:#181818;stroke-width:0.5;" width="186.4736" x="243" y="44.2969"/><text fill="#000000" font-family="sans-serif" font-size="14" lengthAdjust="spacing" textLength="37.8301" x="317.3218" y="62.292">users</text><line style="stroke:#181818;stroke-width:0.5;" x1="244" x2="428.4736" y1="70.5938" y2="70.5938"/><ellipse cx="254" cy="84.2422" fill="#000000" rx="3" ry="3" style="stroke:#000000;stroke-width:1;"/><text fill="#000000" font-family="sans-serif" font-size="14" lengthAdjust="spacing" textLength="96.1201" x="263" y="87.5889">id : uuid &#171;PK&#187;</text><line style="stroke:#181818;stroke-width:1;" x1="244" x2="428.4736" y1="94.8906" y2="94.8906"/><text fill="#000000" font-family="sans-serif" font-size="14" lengthAdjust="spacing" textLength="105.752" x="249" y="111.8857">email : varchar</text><text fill="#000000" font-family="sans-serif" font-size="14" lengthAdjust="spacing" textLength="174.4736" x="249" y="128.1826">password_hash : varchar</text><text fill="#000000" font-family="sans-serif" font-size="14" lengthAdjust="spacing" textLength="110.1611" x="249" y="144.4795">status : varchar</text><text fill="#000000" font-family="sans-serif" font-size="14" lengthAdjust="spacing" textLength="164.5957" x="249" y="160.7764">auth_provider : varchar</text><text fill="#000000" font-family="sans-serif" font-size="14" lengthAdjust="spacing" textLength="163.8369" x="249" y="177.0732">created_at : timestamp</text><text fill="#000000" font-family="sans-serif" font-size="14" lengthAdjust="spacing" textLength="168.417" x="249" y="193.3701">updated_at : timestamp</text></g><!--class roles--><g class="entity" data-entity="roles" data-source-line="17" data-uid="ent0003" id="entity_roles"><rect fill="#F1F1F1" height="91.1875" rx="2.5" ry="2.5" style="stroke:#181818;stroke-width:0.5;" width="156.9834" x="501.5" y="76.7969"/><text fill="#000000" font-family="sans-serif" font-size="14" lengthAdjust="spacing" textLength="34.1182" x="562.9326" y="94.792">roles</text><line style="stroke:#181818;stroke-width:0.5;" x1="502.5" x2="657.4834" y1="103.0938" y2="103.0938"/><ellipse cx="512.5" cy="116.7422" fill="#000000" rx="3" ry="3" style="stroke:#000000;stroke-width:1;"/><text fill="#000000" font-family="sans-serif" font-size="14" lengthAdjust="spacing" textLength="96.1201" x="521.5" y="120.0889">id : uuid &#171;PK&#187;</text><line style="stroke:#181818;stroke-width:1;" x1="502.5" x2="657.4834" y1="127.3906" y2="127.3906"/><text fill="#000000" font-family="sans-serif" font-size="14" lengthAdjust="spacing" textLength="106.8457" x="507.5" y="144.3857">name : varchar</text><text fill="#000000" font-family="sans-serif" font-size="14" lengthAdjust="spacing" textLength="144.9834" x="507.5" y="160.6826">description : varchar</text></g><!--class permissions--><g class="entity" data-entity="permissions" data-source-line="24" data-uid="ent0004" id="entity_permissions"><rect fill="#F1F1F1" height="91.1875" rx="2.5" ry="2.5" style="stroke:#181818;stroke-width:0.5;" width="156.9834" x="712.5" y="76.7969"/><text fill="#000000" font-family="sans-serif" font-size="14" lengthAdjust="spacing" textLength="83.9932" x="748.9951" y="94.792">permissions</text><line style="stroke:#181818;stroke-width:0.5;" x1="713.5" x2="868.4834" y1="103.0938" y2="103.0938"/><ellipse cx="723.5" cy="116.7422" fill="#000000" rx="3" ry="3" style="stroke:#000000;stroke-width:1;"/><text fill="#000000" font-family="sans-serif" font-size="14" lengthAdjust="spacing" textLength="96.1201" x="732.5" y="120.0889">id : uuid &#171;PK&#187;</text><line style="stroke:#181818;stroke-width:1;" x1="713.5" x2="868.4834" y1="127.3906" y2="127.3906"/><text fill="#000000" font-family="sans-serif" font-size="14" lengthAdjust="spacing" textLength="100.9053" x="718.5" y="144.3857">code : varchar</text><text fill="#000000" font-family="sans-serif" font-size="14" lengthAdjust="spacing" textLength="144.9834" x="718.5" y="160.6826">description : varchar</text></g><!--class user_roles--><g class="entity" data-entity="user_roles" data-source-line="31" data-uid="ent0005" id="entity_user_roles"><rect fill="#F1F1F1" height="91.1875" rx="2.5" ry="2.5" style="stroke:#181818;stroke-width:0.5;" width="184.5186" x="468.5" y="284.7969"/><text fill="#000000" font-family="sans-serif" font-size="14" lengthAdjust="spacing" textLength="71.6543" x="524.9321" y="302.792">user_roles</text><line style="stroke:#181818;stroke-width:0.5;" x1="469.5" x2="652.0186" y1="311.0938" y2="311.0938"/><ellipse cx="479.5" cy="324.7422" fill="#000000" rx="3" ry="3" style="stroke:#000000;stroke-width:1;"/><text fill="#000000" font-family="sans-serif" font-size="14" lengthAdjust="spacing" textLength="133.2666" x="488.5" y="328.0889">user_id : uuid &#171;FK&#187;</text><ellipse cx="479.5" cy="341.0391" fill="#000000" rx="3" ry="3" style="stroke:#000000;stroke-width:1;"/><text fill="#000000" font-family="sans-serif" font-size="14" lengthAdjust="spacing" textLength="129.5547" x="488.5" y="344.3857">role_id : uuid &#171;FK&#187;</text><line style="stroke:#181818;stroke-width:1;" x1="469.5" x2="652.0186" y1="351.6875" y2="351.6875"/><text fill="#000000" font-family="sans-serif" font-size="14" lengthAdjust="spacing" textLength="172.5186" x="474.5" y="368.6826">assigned_at : timestamp</text></g><!--class role_permissions--><g class="entity" data-entity="role_permissions" data-source-line="38" data-uid="ent0006" id="entity_role_permissions"><rect fill="#F1F1F1" height="74.8906" rx="2.5" ry="2.5" style="stroke:#181818;stroke-width:0.5;" width="205.4297" x="688.5" y="292.7969"/><text fill="#000000" font-family="sans-serif" font-size="14" lengthAdjust="spacing" textLength="117.8174" x="732.3062" y="310.792">role_permissions</text><line style="stroke:#181818;stroke-width:0.5;" x1="689.5" x2="892.9297" y1="319.0938" y2="319.0938"/><ellipse cx="699.5" cy="332.7422" fill="#000000" rx="3" ry="3" style="stroke:#000000;stroke-width:1;"/><text fill="#000000" font-family="sans-serif" font-size="14" lengthAdjust="spacing" textLength="129.5547" x="708.5" y="336.0889">role_id : uuid &#171;FK&#187;</text><ellipse cx="699.5" cy="349.0391" fill="#000000" rx="3" ry="3" style="stroke:#000000;stroke-width:1;"/><text fill="#000000" font-family="sans-serif" font-size="14" lengthAdjust="spacing" textLength="179.4297" x="708.5" y="352.3857">permission_id : uuid &#171;FK&#187;</text><line style="stroke:#181818;stroke-width:0.5;" x1="689.5" x2="892.9297" y1="359.6875" y2="359.6875"/></g><!--class sessions--><g class="entity" data-entity="sessions" data-source-line="43" data-uid="ent0007" id="entity_sessions"><rect fill="#F1F1F1" height="140.0781" rx="2.5" ry="2.5" style="stroke:#181818;stroke-width:0.5;" width="195.8936" x="7" y="260.2969"/><text fill="#000000" font-family="sans-serif" font-size="14" lengthAdjust="spacing" textLength="59.1172" x="75.3882" y="278.292">sessions</text><line style="stroke:#181818;stroke-width:0.5;" x1="8" x2="201.8936" y1="286.5938" y2="286.5938"/><ellipse cx="18" cy="300.2422" fill="#000000" rx="3" ry="3" style="stroke:#000000;stroke-width:1;"/><text fill="#000000" font-family="sans-serif" font-size="14" lengthAdjust="spacing" textLength="96.1201" x="27" y="303.5889">id : uuid &#171;PK&#187;</text><line style="stroke:#181818;stroke-width:1;" x1="8" x2="201.8936" y1="310.8906" y2="310.8906"/><text fill="#000000" font-family="sans-serif" font-size="14" lengthAdjust="spacing" textLength="133.2666" x="13" y="327.8857">user_id : uuid &#171;FK&#187;</text><text fill="#000000" font-family="sans-serif" font-size="14" lengthAdjust="spacing" textLength="181.2344" x="13" y="344.1826">access_token_jti : varchar</text><text fill="#000000" font-family="sans-serif" font-size="14" lengthAdjust="spacing" textLength="183.8936" x="13" y="360.4795">refresh_token_jti : varchar</text><text fill="#000000" font-family="sans-serif" font-size="14" lengthAdjust="spacing" textLength="161.54" x="13" y="376.7764">expires_at : timestamp</text><text fill="#000000" font-family="sans-serif" font-size="14" lengthAdjust="spacing" textLength="167.0293" x="13" y="393.0732">revoked_at : timestamp</text></g><!--class verification_tokens--><g class="entity" data-entity="verification_tokens" data-source-line="53" data-uid="ent0008" id="entity_verification_tokens"><rect fill="#F1F1F1" height="123.7813" rx="2.5" ry="2.5" style="stroke:#181818;stroke-width:0.5;" width="194.6426" x="238.5" y="268.2969"/><text fill="#000000" font-family="sans-serif" font-size="14" lengthAdjust="spacing" textLength="132.3984" x="269.6221" y="286.292">verification_tokens</text><line style="stroke:#181818;stroke-width:0.5;" x1="239.5" x2="432.1426" y1="294.5938" y2="294.5938"/><ellipse cx="249.5" cy="308.2422" fill="#000000" rx="3" ry="3" style="stroke:#000000;stroke-width:1;"/><text fill="#000000" font-family="sans-serif" font-size="14" lengthAdjust="spacing" textLength="96.1201" x="258.5" y="311.5889">id : uuid &#171;PK&#187;</text><line style="stroke:#181818;stroke-width:1;" x1="239.5" x2="432.1426" y1="318.8906" y2="318.8906"/><text fill="#000000" font-family="sans-serif" font-size="14" lengthAdjust="spacing" textLength="133.2666" x="244.5" y="335.8857">user_id : uuid &#171;FK&#187;</text><text fill="#000000" font-family="sans-serif" font-size="14" lengthAdjust="spacing" textLength="106.791" x="244.5" y="352.1826">token : varchar</text><text fill="#000000" font-family="sans-serif" font-size="14" lengthAdjust="spacing" textLength="161.54" x="244.5" y="368.4795">expires_at : timestamp</text><text fill="#000000" font-family="sans-serif" font-size="14" lengthAdjust="spacing" textLength="182.6426" x="244.5" y="384.7764">consumed_at : timestamp</text></g><!--link users to user_roles--><g class="link" data-entity-1="users" data-entity-2="user_roles" data-source-line="62" data-uid="lnk9" id="link_users_user_roles"><path codeLine="62" d="M437.09,184.2969 C467.21,184.2969 485,184.2969 485,184.2969 C485,184.2969 485,223.6869 485,266.5069" fill="none" id="users-user_roles" style="stroke:#181818;stroke-width:1;"/><line style="stroke:#181818;stroke-width:1;" x1="433.09" x2="433.09" y1="188.2969" y2="180.2969"/><line style="stroke:#181818;stroke-width:1;" x1="436.09" x2="436.09" y1="188.2969" y2="180.2969"/><line style="stroke:#181818;stroke-width:1;" x1="437.09" x2="429.09" y1="184.2969" y2="184.2969"/><line style="stroke:#181818;stroke-width:1;" x1="485" x2="491" y1="276.5069" y2="284.5069"/><line style="stroke:#181818;stroke-width:1;" x1="485" x2="479" y1="276.5069" y2="284.5069"/><line style="stroke:#181818;stroke-width:1;" x1="485" x2="485" y1="276.5069" y2="284.5069"/><ellipse cx="485" cy="270.5069" fill="none" rx="4" ry="4" style="stroke:#181818;stroke-width:1;"/></g><!--link roles to user_roles--><g class="link" data-entity-1="roles" data-entity-2="user_roles" data-source-line="63" data-uid="lnk10" id="link_roles_user_roles"><path codeLine="63" d="M577.5,175.9469 C577.5,210.6269 577.5,232.1069 577.5,266.7569" fill="none" id="roles-user_roles" style="stroke:#181818;stroke-width:1;"/><line style="stroke:#181818;stroke-width:1;" x1="573.5" x2="581.5" y1="171.9469" y2="171.9469"/><line style="stroke:#181818;stroke-width:1;" x1="573.5" x2="581.5" y1="174.9469" y2="174.9469"/><line style="stroke:#181818;stroke-width:1;" x1="577.5" x2="577.5" y1="175.9469" y2="167.9469"/><line style="stroke:#181818;stroke-width:1;" x1="577.5" x2="583.5" y1="276.7569" y2="284.7569"/><line style="stroke:#181818;stroke-width:1;" x1="577.5" x2="571.5" y1="276.7569" y2="284.7569"/><line style="stroke:#181818;stroke-width:1;" x1="577.5" x2="577.5" y1="276.7569" y2="284.7569"/><ellipse cx="577.5" cy="270.7569" fill="none" rx="4" ry="4" style="stroke:#181818;stroke-width:1;"/></g><!--link roles to role_permissions--><g class="link" data-entity-1="roles" data-entity-2="role_permissions" data-source-line="64" data-uid="lnk11" id="link_roles_role_permissions"><path codeLine="64" d="M666.69,122.2969 C689.56,122.2969 700.5,122.2969 700.5,122.2969 C700.5,122.2969 700.5,214.6869 700.5,274.6269" fill="none" id="roles-role_permissions" style="stroke:#181818;stroke-width:1;"/><line style="stroke:#181818;stroke-width:1;" x1="662.69" x2="662.69" y1="126.2969" y2="118.2969"/><line style="stroke:#181818;stroke-width:1;" x1="665.69" x2="665.69" y1="126.2969" y2="118.2969"/><line style="stroke:#181818;stroke-width:1;" x1="666.69" x2="658.69" y1="122.2969" y2="122.2969"/><line style="stroke:#181818;stroke-width:1;" x1="700.5" x2="706.5" y1="284.6269" y2="292.6269"/><line style="stroke:#181818;stroke-width:1;" x1="700.5" x2="694.5" y1="284.6269" y2="292.6269"/><line style="stroke:#181818;stroke-width:1;" x1="700.5" x2="700.5" y1="284.6269" y2="292.6269"/><ellipse cx="700.5" cy="278.6269" fill="none" rx="4" ry="4" style="stroke:#181818;stroke-width:1;"/></g><!--link permissions to role_permissions--><g class="link" data-entity-1="permissions" data-entity-2="role_permissions" data-source-line="65" data-uid="lnk12" id="link_permissions_role_permissions"><path codeLine="65" d="M791,175.9469 C791,213.3769 791,239.7169 791,274.7469" fill="none" id="permissions-role_permissions" style="stroke:#181818;stroke-width:1;"/><line style="stroke:#181818;stroke-width:1;" x1="787" x2="795" y1="171.9469" y2="171.9469"/><line style="stroke:#181818;stroke-width:1;" x1="787" x2="795" y1="174.9469" y2="174.9469"/><line style="stroke:#181818;stroke-width:1;" x1="791" x2="791" y1="175.9469" y2="167.9469"/><line style="stroke:#181818;stroke-width:1;" x1="791" x2="797" y1="284.7469" y2="292.7469"/><line style="stroke:#181818;stroke-width:1;" x1="791" x2="785" y1="284.7469" y2="292.7469"/><line style="stroke:#181818;stroke-width:1;" x1="791" x2="791" y1="284.7469" y2="292.7469"/><ellipse cx="791" cy="278.7469" fill="none" rx="4" ry="4" style="stroke:#181818;stroke-width:1;"/></g><!--link users to sessions--><g class="link" data-entity-1="users" data-entity-2="sessions" data-source-line="66" data-uid="lnk13" id="link_users_sessions"><path codeLine="66" d="M305,208.3569 C305,241.3569 305,264.2969 305,264.2969 C305,264.2969 271.82,264.2969 221.24,264.2969" fill="none" id="users-sessions" style="stroke:#181818;stroke-width:1;"/><line style="stroke:#181818;stroke-width:1;" x1="301" x2="309" y1="204.3569" y2="204.3569"/><line style="stroke:#181818;stroke-width:1;" x1="301" x2="309" y1="207.3569" y2="207.3569"/><line style="stroke:#181818;stroke-width:1;" x1="305" x2="305" y1="208.3569" y2="200.3569"/><line style="stroke:#181818;stroke-width:1;" x1="211.24" x2="203.24" y1="264.2969" y2="270.2969"/><line style="stroke:#181818;stroke-width:1;" x1="211.24" x2="203.24" y1="264.2969" y2="258.2969"/><line style="stroke:#181818;stroke-width:1;" x1="211.24" x2="203.24" y1="264.2969" y2="264.2969"/><ellipse cx="217.24" cy="264.2969" fill="none" rx="4" ry="4" style="stroke:#181818;stroke-width:1;"/></g><!--link users to verification_tokens--><g class="link" data-entity-1="users" data-entity-2="verification_tokens" data-source-line="67" data-uid="lnk14" id="link_users_verification_tokens"><path codeLine="67" d="M367,208.3369 C367,230.7069 367,228.7769 367,250.0569" fill="none" id="users-verification_tokens" style="stroke:#181818;stroke-width:1;"/><line style="stroke:#181818;stroke-width:1;" x1="363" x2="371" y1="204.3369" y2="204.3369"/><line style="stroke:#181818;stroke-width:1;" x1="363" x2="371" y1="207.3369" y2="207.3369"/><line style="stroke:#181818;stroke-width:1;" x1="367" x2="367" y1="208.3369" y2="200.3369"/><line style="stroke:#181818;stroke-width:1;" x1="367" x2="373" y1="260.0569" y2="268.0569"/><line style="stroke:#181818;stroke-width:1;" x1="367" x2="361" y1="260.0569" y2="268.0569"/><line style="stroke:#181818;stroke-width:1;" x1="367" x2="367" y1="260.0569" y2="268.0569"/><ellipse cx="367" cy="254.0569" fill="none" rx="4" ry="4" style="stroke:#181818;stroke-width:1;"/></g><!--SRC=[dLD1ReD03BppYZtr48aFL56aIb6bgfV-0BcxJd03xCesj57IltS3RGCDbBGNa6RmU3msIbgWUN1OAUdUt9WxQr74f6OD2iyWQDOejAtCcc3BK2P9JWwD9RO59hAZAa24JK4LwZwWyQovJv9FmLgGnHmIOnQ6dBarTHrVo-NJuseLmJID3oo1YaWrm3O7ZaW0aLVFBij1yW4Z2bhB089QyoomRw8l7Z2M4HHT1XfXfH9ZTHaYKGStHhn_ssPVu9pj2aeSj7CebYae-Qg7dqK3SaaYaPwJjjxzJVeKSzOttG9z-VjEVj6EDiQqZMFkSTTpoMINaqofBdfJN_9dMS6hWfaQ2zghpTJliCfUb0RXCMuO9PzWyIrGf2-FXB691Rz4qI3JXYoSjjA9_zT-MtoTAnj3gijHMzs_TZocgJ_qBYBfxc86_xdNfB_ZgMy67RzME4H7Gle0]--></g></svg>