<svg xmlns="http://www.w3.org/2000/svg" xmlns:xlink="http://www.w3.org/1999/xlink" contentStyleType="text/css" data-diagram-type="CLASS" height="677px" preserveAspectRatio="none" style="width:900px;height:677px;background:#FFFFFF;" version="1.1" viewBox="0 0 900 677" width="900px" zoomAndPan="magnify"><title>Identity &amp; Access - Domain Layer Class Diagram</title><defs/><g><g class="title" data-source-line="1"><text fill="#000000" font-family="sans-serif" font-size="14" font-weight="bold" lengthAdjust="spacing" textLength="379.6816" x="253.6221" y="22.9951">Identity &amp; Access - Domain Layer Class Diagram</text></g><!--class UserStatus--><g class="entity" data-entity="UserStatus" data-source-line="6" data-uid="ent0002" id="entity_UserStatus"><rect fill="#F1F1F1" height="91.1875" rx="2.5" ry="2.5" style="stroke:#181818;stroke-width:0.5;" width="148.2129" x="173.5" y="93.2969"/><text fill="#000000" font-family="sans-serif" font-size="14" lengthAdjust="spacing" textLength="76.5215" x="209.3457" y="111.292">UserStatus</text><line style="stroke:#181818;stroke-width:0.5;" x1="174.5" x2="320.7129" y1="119.5938" y2="119.5938"/><text fill="#000000" font-family="sans-serif" font-size="14" lengthAdjust="spacing" textLength="136.2129" x="179.5" y="136.5889">PendingVerification</text><text fill="#000000" font-family="sans-serif" font-size="14" lengthAdjust="spacing" textLength="43.5518" x="179.5" y="152.8857">Active</text><text fill="#000000" font-family="sans-serif" font-size="14" lengthAdjust="spacing" textLength="84.9023" x="179.5" y="169.1826">Deactivated</text><line style="stroke:#181818;stroke-width:0.5;" x1="174.5" x2="320.7129" y1="176.4844" y2="176.4844"/></g><!--class AuthProviderType--><g class="entity" data-entity="AuthProviderType" data-source-line="12" data-uid="ent0003" id="entity_AuthProviderType"><rect fill="#F1F1F1" height="74.8906" rx="2.5" ry="2.5" style="stroke:#181818;stroke-width:0.5;" width="131.3438" x="357" y="101.2969"/><text fill="#000000" font-family="sans-serif" font-size="14" lengthAdjust="spacing" textLength="125.3438" x="360" y="119.292">AuthProviderType</text><line style="stroke:#181818;stroke-width:0.5;" x1="358" x2="487.3438" y1="127.5938" y2="127.5938"/><text fill="#000000" font-family="sans-serif" font-size="14" lengthAdjust="spacing" textLength="36.5313" x="363" y="144.5889">Local</text><text fill="#000000" font-family="sans-serif" font-size="14" lengthAdjust="spacing" textLength="49.3691" x="363" y="160.8857">Google</text><line style="stroke:#181818;stroke-width:0.5;" x1="358" x2="487.3438" y1="168.1875" y2="168.1875"/></g><!--class User--><g class="entity" data-entity="User" data-source-line="17" data-uid="ent0004" id="entity_User"><rect fill="#F1F1F1" height="188.9688" rx="2.5" ry="2.5" style="stroke:#181818;stroke-width:0.5;" width="236.4238" x="523.5" y="44.2969"/><text fill="#000000" font-family="sans-serif" font-size="14" lengthAdjust="spacing" textLength="31.9102" x="625.7568" y="62.292">User</text><line style="stroke:#181818;stroke-width:0.5;" x1="524.5" x2="758.9238" y1="70.5938" y2="70.5938"/><text fill="#000000" font-family="sans-serif" font-size="14" lengthAdjust="spacing" textLength="78.5996" x="529.5" y="87.5889">+id: UserId</text><text fill="#000000" font-family="sans-serif" font-size="14" lengthAdjust="spacing" textLength="98.3486" x="529.5" y="103.8857">+email: Email</text><text fill="#000000" font-family="sans-serif" font-size="14" lengthAdjust="spacing" textLength="224.4238" x="529.5" y="120.1826">+passwordHash: PasswordHash</text><text fill="#000000" font-family="sans-serif" font-size="14" lengthAdjust="spacing" textLength="140.4375" x="529.5" y="136.4795">+status: UserStatus</text><text fill="#000000" font-family="sans-serif" font-size="14" lengthAdjust="spacing" textLength="204.8799" x="529.5" y="152.7764">+provider: AuthProviderType</text><line style="stroke:#181818;stroke-width:0.5;" x1="524.5" x2="758.9238" y1="160.0781" y2="160.0781"/><text fill="#000000" font-family="sans-serif" font-size="14" lengthAdjust="spacing" textLength="76.9521" x="529.5" y="177.0732">+register()</text><text fill="#000000" font-family="sans-serif" font-size="14" lengthAdjust="spacing" textLength="101.2539" x="529.5" y="193.3701">+verifyEmail()</text><text fill="#000000" font-family="sans-serif" font-size="14" lengthAdjust="spacing" textLength="96.7764" x="529.5" y="209.667">+deactivate()</text><text fill="#000000" font-family="sans-serif" font-size="14" lengthAdjust="spacing" textLength="165.0537" x="529.5" y="225.9639">+assignRole(role: Role)</text></g><!--class Role--><g class="entity" data-entity="Role" data-source-line="29" data-uid="ent0005" id="entity_Role"><rect fill="#F1F1F1" height="74.8906" rx="2.5" ry="2.5" style="stroke:#181818;stroke-width:0.5;" width="144.6992" x="180" y="325.7969"/><text fill="#000000" font-family="sans-serif" font-size="14" lengthAdjust="spacing" textLength="30.7959" x="236.9517" y="343.792">Role</text><line style="stroke:#181818;stroke-width:0.5;" x1="181" x2="323.6992" y1="352.0938" y2="352.0938"/><text fill="#000000" font-family="sans-serif" font-size="14" lengthAdjust="spacing" textLength="77.4854" x="186" y="369.0889">+id: RoleId</text><text fill="#000000" font-family="sans-serif" font-size="14" lengthAdjust="spacing" textLength="132.6992" x="186" y="385.3857">+name: RoleName</text><line style="stroke:#181818;stroke-width:0.5;" x1="181" x2="323.6992" y1="392.6875" y2="392.6875"/></g><!--class Permission--><g class="entity" data-entity="Permission" data-source-line="34" data-uid="ent0006" id="entity_Permission"><rect fill="#F1F1F1" height="74.8906" rx="2.5" ry="2.5" style="stroke:#181818;stroke-width:0.5;" width="134.9443" x="7" y="493.2969"/><text fill="#000000" font-family="sans-serif" font-size="14" lengthAdjust="spacing" textLength="76.2549" x="36.3447" y="511.292">Permission</text><line style="stroke:#181818;stroke-width:0.5;" x1="8" x2="140.9443" y1="519.5938" y2="519.5938"/><text fill="#000000" font-family="sans-serif" font-size="14" lengthAdjust="spacing" textLength="122.9443" x="13" y="536.5889">+id: PermissionId</text><text fill="#000000" font-family="sans-serif" font-size="14" lengthAdjust="spacing" textLength="96.4414" x="13" y="552.8857">+code: String</text><line style="stroke:#181818;stroke-width:0.5;" x1="8" x2="140.9443" y1="560.1875" y2="560.1875"/></g><!--class Session--><g class="entity" data-entity="Session" data-source-line="39" data-uid="ent0007" id="entity_Session"><rect fill="#F1F1F1" height="140.0781" rx="2.5" ry="2.5" style="stroke:#181818;stroke-width:0.5;" width="221.959" x="361.5" y="293.2969"/><text fill="#000000" font-family="sans-serif" font-size="14" lengthAdjust="spacing" textLength="53.416" x="445.7715" y="311.292">Session</text><line style="stroke:#181818;stroke-width:0.5;" x1="362.5" x2="582.459" y1="319.5938" y2="319.5938"/><text fill="#000000" font-family="sans-serif" font-size="14" lengthAdjust="spacing" textLength="100.1055" x="367.5" y="336.5889">+id: SessionId</text><text fill="#000000" font-family="sans-serif" font-size="14" lengthAdjust="spacing" textLength="201.667" x="367.5" y="352.8857">+accessToken: AccessToken</text><text fill="#000000" font-family="sans-serif" font-size="14" lengthAdjust="spacing" textLength="209.959" x="367.5" y="369.1826">+refreshToken: RefreshToken</text><text fill="#000000" font-family="sans-serif" font-size="14" lengthAdjust="spacing" textLength="136.0283" x="367.5" y="385.4795">+expiresAt: Instant</text><line style="stroke:#181818;stroke-width:0.5;" x1="362.5" x2="582.459" y1="392.7813" y2="392.7813"/><text fill="#000000" font-family="sans-serif" font-size="14" lengthAdjust="spacing" textLength="70.5947" x="367.5" y="409.7764">+revoke()</text><text fill="#000000" font-family="sans-serif" font-size="14" lengthAdjust="spacing" textLength="72.4883" x="367.5" y="426.0732">+refresh()</text></g><!--class Email--><g class="entity" data-entity="Email" data-source-line="48" data-uid="ent0008" id="entity_Email"><rect fill="#F1F1F1" height="42.2969" rx="2.5" ry="2.5" style="stroke:#181818;stroke-width:0.5;" width="44.8418" x="619" y="342.2969"/><text fill="#000000" font-family="sans-serif" font-size="14" lengthAdjust="spacing" textLength="38.8418" x="622" y="360.292">Email</text><line style="stroke:#181818;stroke-width:0.5;" x1="620" x2="662.8418" y1="368.5938" y2="368.5938"/><line style="stroke:#181818;stroke-width:0.5;" x1="620" x2="662.8418" y1="376.5938" y2="376.5938"/></g><!--class PasswordHash--><g class="entity" data-entity="PasswordHash" data-source-line="49" data-uid="ent0009" id="entity_PasswordHash"><rect fill="#F1F1F1" height="42.2969" rx="2.5" ry="2.5" style="stroke:#181818;stroke-width:0.5;" width="107.541" x="699.5" y="342.2969"/><text fill="#000000" font-family="sans-serif" font-size="14" lengthAdjust="spacing" textLength="101.541" x="702.5" y="360.292">PasswordHash</text><line style="stroke:#181818;stroke-width:0.5;" x1="700.5" x2="806.041" y1="368.5938" y2="368.5938"/><line style="stroke:#181818;stroke-width:0.5;" x1="700.5" x2="806.041" y1="376.5938" y2="376.5938"/></g><!--class AccessToken--><g class="entity" data-entity="AccessToken" data-source-line="50" data-uid="ent0010" id="entity_AccessToken"><rect fill="#F1F1F1" height="42.2969" rx="2.5" ry="2.5" style="stroke:#181818;stroke-width:0.5;" width="96.8838" x="376" y="509.7969"/><text fill="#000000" font-family="sans-serif" font-size="14" lengthAdjust="spacing" textLength="90.8838" x="379" y="527.792">AccessToken</text><line style="stroke:#181818;stroke-width:0.5;" x1="377" x2="471.8838" y1="536.0938" y2="536.0938"/><line style="stroke:#181818;stroke-width:0.5;" x1="377" x2="471.8838" y1="544.0938" y2="544.0938"/></g><!--class RefreshToken--><g class="entity" data-entity="RefreshToken" data-source-line="51" data-uid="ent0011" id="entity_RefreshToken"><rect fill="#F1F1F1" height="42.2969" rx="2.5" ry="2.5" style="stroke:#181818;stroke-width:0.5;" width="102.5166" x="508" y="509.7969"/><text fill="#000000" font-family="sans-serif" font-size="14" lengthAdjust="spacing" textLength="96.5166" x="511" y="527.792">RefreshToken</text><line style="stroke:#181818;stroke-width:0.5;" x1="509" x2="609.5166" y1="536.0938" y2="536.0938"/><line style="stroke:#181818;stroke-width:0.5;" x1="509" x2="609.5166" y1="544.0938" y2="544.0938"/></g><!--class UserId--><g class="entity" data-entity="UserId" data-source-line="52" data-uid="ent0012" id="entity_UserId"><rect fill="#F1F1F1" height="42.2969" rx="2.5" ry="2.5" style="stroke:#181818;stroke-width:0.5;" width="50.9258" x="843" y="342.2969"/><text fill="#000000" font-family="sans-serif" font-size="14" lengthAdjust="spacing" textLength="44.9258" x="846" y="360.292">UserId</text><line style="stroke:#181818;stroke-width:0.5;" x1="844" x2="892.9258" y1="368.5938" y2="368.5938"/><line style="stroke:#181818;stroke-width:0.5;" x1="844" x2="892.9258" y1="376.5938" y2="376.5938"/></g><!--class RoleId--><g class="entity" data-entity="RoleId" data-source-line="53" data-uid="ent0013" id="entity_RoleId"><rect fill="#F1F1F1" height="42.2969" rx="2.5" ry="2.5" style="stroke:#181818;stroke-width:0.5;" width="49.8115" x="177.5" y="509.7969"/><text fill="#000000" font-family="sans-serif" font-size="14" lengthAdjust="spacing" textLength="43.8115" x="180.5" y="527.792">RoleId</text><line style="stroke:#181818;stroke-width:0.5;" x1="178.5" x2="226.3115" y1="536.0938" y2="536.0938"/><line style="stroke:#181818;stroke-width:0.5;" x1="178.5" x2="226.3115" y1="544.0938" y2="544.0938"/></g><!--class RoleName--><g class="entity" data-entity="RoleName" data-source-line="54" data-uid="ent0014" id="entity_RoleName"><rect fill="#F1F1F1" height="42.2969" rx="2.5" ry="2.5" style="stroke:#181818;stroke-width:0.5;" width="78.0986" x="262.5" y="509.7969"/><text fill="#000000" font-family="sans-serif" font-size="14" lengthAdjust="spacing" textLength="72.0986" x="265.5" y="527.792">RoleName</text><line style="stroke:#181818;stroke-width:0.5;" x1="263.5" x2="339.5986" y1="536.0938" y2="536.0938"/><line style="stroke:#181818;stroke-width:0.5;" x1="263.5" x2="339.5986" y1="544.0938" y2="544.0938"/></g><!--class PermissionId--><g class="entity" data-entity="PermissionId" data-source-line="55" data-uid="ent0015" id="entity_PermissionId"><rect fill="#F1F1F1" height="42.2969" rx="2.5" ry="2.5" style="stroke:#181818;stroke-width:0.5;" width="95.2705" x="27" y="628.2969"/><text fill="#000000" font-family="sans-serif" font-size="14" lengthAdjust="spacing" textLength="89.2705" x="30" y="646.292">PermissionId</text><line style="stroke:#181818;stroke-width:0.5;" x1="28" x2="121.2705" y1="654.5938" y2="654.5938"/><line style="stroke:#181818;stroke-width:0.5;" x1="28" x2="121.2705" y1="662.5938" y2="662.5938"/></g><!--class SessionId--><g class="entity" data-entity="SessionId" data-source-line="56" data-uid="ent0016" id="entity_SessionId"><rect fill="#F1F1F1" height="42.2969" rx="2.5" ry="2.5" style="stroke:#181818;stroke-width:0.5;" width="72.4316" x="646.5" y="509.7969"/><text fill="#000000" font-family="sans-serif" font-size="14" lengthAdjust="spacing" textLength="66.4316" x="649.5" y="527.792">SessionId</text><line style="stroke:#181818;stroke-width:0.5;" x1="647.5" x2="717.9316" y1="536.0938" y2="536.0938"/><line style="stroke:#181818;stroke-width:0.5;" x1="647.5" x2="717.9316" y1="544.0938" y2="544.0938"/></g><!--reverse link User to Role--><g class="link" data-entity-1="User" data-entity-2="Role" data-source-line="58" data-uid="lnk17" id="link_User_Role"><path codeLine="58" d="M512.7296,229.6028 C506.8396,232.9928 511.35,230.2569 505.5,233.2969 C437.75,268.5269 411.51,256.6769 344.5,293.2969 C327.86,302.3969 310.9,314.2369 296.15,325.5469" fill="none" id="User-backto-Role" style="stroke:#181818;stroke-width:1;"/><polygon fill="none" points="523.13,223.6169,515.9345,223.1431,512.7296,229.6028,519.9251,230.0767,523.13,223.6169" style="stroke:#181818;stroke-width:1;"/><text fill="#000000" font-family="sans-serif" font-size="13" lengthAdjust="spacing" textLength="8.271" x="507.2858" y="225.6423">1</text><text fill="#000000" font-family="sans-serif" font-size="13" lengthAdjust="spacing" textLength="6.5" x="297.2055" y="314.8572">*</text></g><!--reverse link Role to Permission--><g class="link" data-entity-1="Role" data-entity-2="Permission" data-source-line="59" data-uid="lnk18" id="link_Role_Permission"><path codeLine="59" d="M204.212,409.1982 C174.712,436.6282 143.36,465.7669 113.89,493.1669" fill="none" id="Role-backto-Permission" style="stroke:#181818;stroke-width:1;"/><polygon fill="none" points="213,401.0269,205.8822,402.1832,204.212,409.1982,211.3298,408.0419,213,401.0269" style="stroke:#181818;stroke-width:1;"/><text fill="#000000" font-family="sans-serif" font-size="13" lengthAdjust="spacing" textLength="6.5" x="199.7641" y="420.8885">*</text><text fill="#000000" font-family="sans-serif" font-size="13" lengthAdjust="spacing" textLength="6.5" x="114.4215" y="482.2166">*</text></g><!--reverse link User to Session--><g class="link" data-entity-1="User" data-entity-2="Session" data-source-line="60" data-uid="lnk19" id="link_User_Session"><path codeLine="60" d="M563.0596,243.0713 C547.8996,263.0213 539.42,274.1869 525.11,293.0269" fill="none" id="User-backto-Session" style="stroke:#181818;stroke-width:1;"/><polygon fill="none" points="570.32,233.5169,563.505,235.8739,563.0596,243.0713,569.8746,240.7142,570.32,233.5169" style="stroke:#181818;stroke-width:1;"/><text fill="#000000" font-family="sans-serif" font-size="13" lengthAdjust="spacing" textLength="8.271" x="556.5582" y="253.4163">1</text><text fill="#000000" font-family="sans-serif" font-size="13" lengthAdjust="spacing" textLength="6.5" x="524.2539" y="282.0766">*</text></g><!--link User to Email--><g class="link" data-entity-1="User" data-entity-2="Email" data-source-line="61" data-uid="lnk20" id="link_User_Email"><path codeLine="61" d="M641.5,233.5169 C641.5,273.8969 641.5,311.4369 641.5,336.1269" fill="none" id="User-to-Email" style="stroke:#181818;stroke-width:1;"/><polygon fill="#181818" points="641.5,342.1269,645.5,333.1269,641.5,337.1269,637.5,333.1269,641.5,342.1269" style="stroke:#181818;stroke-width:1;"/></g><!--link User to PasswordHash--><g class="link" data-entity-1="User" data-entity-2="PasswordHash" data-source-line="62" data-uid="lnk21" id="link_User_PasswordHash"><path codeLine="62" d="M688.67,233.5169 C709,273.8969 728.222,312.0777 740.652,336.7677" fill="none" id="User-to-PasswordHash" style="stroke:#181818;stroke-width:1;"/><polygon fill="#181818" points="743.35,342.1269,742.8757,332.2894,741.1016,337.6609,735.7302,335.8868,743.35,342.1269" style="stroke:#181818;stroke-width:1;"/></g><!--link User to UserId--><g class="link" data-entity-1="User" data-entity-2="UserId" data-source-line="63" data-uid="lnk22" id="link_User_UserId"><path codeLine="63" d="M759.54,228.6869 C782.67,248.6869 805.83,270.7069 825.5,293.2969 C838.57,308.3069 847.4069,322.455 855.2969,336.855" fill="none" id="User-to-UserId" style="stroke:#181818;stroke-width:1;"/><polygon fill="#181818" points="858.18,342.1169,857.3633,332.3019,855.7774,337.7319,850.3474,336.1461,858.18,342.1169" style="stroke:#181818;stroke-width:1;"/></g><!--link Role to RoleId--><g class="link" data-entity-1="Role" data-entity-2="RoleId" data-source-line="64" data-uid="lnk23" id="link_Role_RoleId"><path codeLine="64" d="M241.4,401.0269 C231.28,434.5469 218.4252,477.0933 210.2952,504.0033" fill="none" id="Role-to-RoleId" style="stroke:#181818;stroke-width:1;"/><polygon fill="#181818" points="208.56,509.7469,214.9919,502.2883,210.006,504.9605,207.3338,499.9746,208.56,509.7469" style="stroke:#181818;stroke-width:1;"/></g><!--link Role to RoleName--><g class="link" data-entity-1="Role" data-entity-2="RoleName" data-source-line="65" data-uid="lnk24" id="link_Role_RoleName"><path codeLine="65" d="M263.37,401.0269 C273.3,434.5469 285.8961,477.0839 293.8661,503.9939" fill="none" id="Role-to-RoleName" style="stroke:#181818;stroke-width:1;"/><polygon fill="#181818" points="295.57,509.7469,296.8495,499.9815,294.1501,504.9527,289.1789,502.2533,295.57,509.7469" style="stroke:#181818;stroke-width:1;"/></g><!--link Permission to PermissionId--><g class="link" data-entity-1="Permission" data-entity-2="PermissionId" data-source-line="66" data-uid="lnk25" id="link_Permission_PermissionId"><path codeLine="66" d="M74.5,568.3369 C74.5,588.0869 74.5,605.7269 74.5,622.1569" fill="none" id="Permission-to-PermissionId" style="stroke:#181818;stroke-width:1;"/><polygon fill="#181818" points="74.5,628.1569,78.5,619.1569,74.5,623.1569,70.5,619.1569,74.5,628.1569" style="stroke:#181818;stroke-width:1;"/></g><!--link Session to SessionId--><g class="link" data-entity-1="Session" data-entity-2="SessionId" data-source-line="67" data-uid="lnk26" id="link_Session_SessionId"><path codeLine="67" d="M560.34,433.5269 C595.18,460.9869 627.9075,486.7731 652.0175,505.7731" fill="none" id="Session-to-SessionId" style="stroke:#181818;stroke-width:1;"/><polygon fill="#181818" points="656.73,509.4869,652.137,500.7746,652.8029,506.3921,647.1853,507.058,656.73,509.4869" style="stroke:#181818;stroke-width:1;"/></g><!--link Session to AccessToken--><g class="link" data-entity-1="Session" data-entity-2="AccessToken" data-source-line="68" data-uid="lnk27" id="link_Session_AccessToken"><path codeLine="68" d="M452.42,433.5269 C444.46,460.9869 437.5711,484.7243 432.0611,503.7243" fill="none" id="Session-to-AccessToken" style="stroke:#181818;stroke-width:1;"/><polygon fill="#181818" points="430.39,509.4869,436.7384,501.9571,431.7826,504.6847,429.055,499.7289,430.39,509.4869" style="stroke:#181818;stroke-width:1;"/></g><!--link Session to RefreshToken--><g class="link" data-entity-1="Session" data-entity-2="RefreshToken" data-source-line="69" data-uid="lnk28" id="link_Session_RefreshToken"><path codeLine="69" d="M508.89,433.5269 C523.33,460.9869 536.0377,485.1762 546.0277,504.1762" fill="none" id="Session-to-RefreshToken" style="stroke:#181818;stroke-width:1;"/><polygon fill="#181818" points="548.82,509.4869,548.172,499.6594,546.4931,505.0613,541.0911,503.3824,548.82,509.4869" style="stroke:#181818;stroke-width:1;"/></g><!--SRC=[PL9DRzim3BthLn0v5Ea60ztLXm76Ccm1YY5ekjqrYNM8sb8WAMcpeV-zr4SZfRtOUazy91-fG652M6iqWS89hc1G2hs73bPsbcJWLfxGmRT9ChaYEJev2x4ZZQ38gGc5VoIpbqo3Ya5328x-7WAkbJLR-eTm8mIQmmo_FRfjaE7WuRy0sA3HPCO_wEY1b0na3RE32dH4FgnGngCCgCLBoJ0SmcxZx96hk_lJ7bEUMwlanFyVrexS3iUcFbAv5F2PT9_GMaU4R6lguNlyHRpdu2Vhz4_fTpri6XHlVMguRvfFcj94_w6bUEjm91_GBQyZEaQ3frGk4_hiB6EkIAEvinCk7NzwYCVhQYJ2QYIYRCJ8kGJ_ubEDtw2RYNDQKrMLorfbDMktl2epLkKMtyaAaJKolOnx-uYcByyaWMpvmQ7VbSkx1gMHF- -9YI7qi3OyKHEoviW1UGP5lsnivmKLI-rMCjKsKERKLgrlW9klSxm0QMplPtQEgDv5UagBBmkmNGUBJuka5cal4RsnDSb7HScMBxhkQx5tXXSEpspfFrMAk5YumCb5i_EKhRNpjjLuKKsrR3lBbcyd-We0]--></g></svg>