<svg width="580" height="529" viewBox="0 0 580 529" fill="none" xmlns="http://www.w3.org/2000/svg">
<path d="M301.316 119.938L338.093 158.045C395.257 217.277 392.956 311.813 332.978 368.194L299.143 400H289.959L290.671 397C302.971 345.153 288.469 290.591 252.048 251.694L242.987 242.017C170.59 164.698 199.024 38.7257 297.612 0C267.798 34.9754 269.401 86.8686 301.316 119.938Z" fill="#EB1D23"/>
<path d="M107.808 43.4041L118.1 29C75.0584 54.6009 42.4885 94.6334 26.1785 141.982L20.0855 159.671C6.87471 198.023 2.72384 238.913 7.95811 279.137L8.17938 280.837C13.1661 319.159 26.3202 355.964 46.7529 388.765L50.5059 394.79C65.7195 419.213 84.8769 440.944 107.199 459.101C139.537 485.405 177.719 503.558 218.534 512.034L236.988 515.866C278.573 524.502 321.603 523.265 362.623 512.255C394.937 503.582 425.37 489.014 452.391 469.283L459.937 463.773C488.958 442.582 513.539 415.903 532.288 385.248L534.087 382.306C551.58 353.704 563.312 321.959 568.625 288.856C576.066 242.491 570.674 194.974 553.033 151.456L550.797 145.941C534.451 105.617 508.886 69.6823 476.15 41.0179L462.425 29L479.809 58.2749C528.168 139.712 519.557 242.976 458.526 315.404C373.869 415.87 220.797 421.507 129.239 327.288C54.4084 250.283 45.3862 130.77 107.808 43.4041Z" fill="#EB1D23"/>
</svg>
